<svg id="group" xmlns="http://www.w3.org/2000/svg" viewBox="0 0 521.94 697.64"><defs><style>.cls-1{fill:#27c1b5;}.cls-10,.cls-12,.cls-16,.cls-2,.cls-4{font-size:30px;font-family:Arial-BoldMT, Arial;font-weight:700;}.cls-16,.cls-2{fill:#26c2b5;}.cls-10,.cls-2,.cls-4{letter-spacing:0em;}.cls-3{fill:#8298e2;}.cls-4{fill:#8399e3;}.cls-5{fill:#f8bf88;}.cls-6{fill:#f7bf88;}.cls-7{fill:#f6c088;}.cls-8{fill:#f8bf87;}.cls-9{fill:#f7c088;}.cls-10{fill:#de8631;}.cls-11{fill:#3cb5f5;}.cls-12{fill:#fdfefe;}.cls-12,.cls-16{letter-spacing:0.01em;}.cls-13{fill:#f09c4b;}.cls-14{fill:#f09d4b;}.cls-15{fill:#c5e9e6;}</style></defs><title>whisky map</title><g id="campbeltown"><path class="cls-1" d="M192.48,684.48c-1.6,0-3.82.62-4.62-.18s-.18-3-.18-4.62V669.6c1.4-1.36,2-3.3,3.59-4.57,2.5-2,4.79-4.1,4.62-7.84a71.71,71.71,0,0,1,.15-12.44c.66-5.09,1.62-10.15,2.33-15.24.22-1.58-.35-3.86,1.79-4.59,2.59-.89,4.22-2.15,3.45-5.18-.07-.27.18-.61.18-.93,0-2.15,1.63-3.72,2-5.77.44-2.57-1.18-5.63-3.55-6.37-1.34-.41-1.51-1.54-1.53-2.68-.08-4.31.47-8.45,3.06-12.13a5.37,5.37,0,0,0,1.44-3c-1.1.38-2,.77-3,1-1.56.44-2.58-.13-2.45-1.83a20.16,20.16,0,0,0-1.18-7.7,15.14,15.14,0,0,1-.33-5.46c.07-1.33.63-1.92,1.91-1.81s2-.42,2-1.9c.2-4.7,2.71-7.93,6.76-10.1,1.1-.6,2.16-1.29,3.24-1.93h1.44a4,4,0,0,1,.47,2.76A11.8,11.8,0,0,0,218,572.68c1.8,1.65,4,3.36,4.31,6.29.82,6.81,3.17,13.22,5.48,19.62.29.8.68,1.39,1.66,1.46,1.56.1,2.23.86,2.53,2.55.27,1.52-.08,3.2.86,4.6v1c-.17,3.16-2.61,4.09-5,5a38.5,38.5,0,0,1-4.09,1.23c-1.57.4-2.5,1.24-2.47,3a9,9,0,0,1-1.37,4.46c-1.54,2.83-4.07,5.35-4.16,8.68-.12,4.49-1.26,8.83-1.25,13.33s-.71,9-3.67,12.79c-1.62,2.1-2.67,4.54-1.41,7.29.85,1.88,1.64,3.79,2.62,5.6a3.83,3.83,0,0,1-.49,4.83c-1.52,1.73-2.95,3.54-4.36,5.37a5.23,5.23,0,0,1-5.48,2.19C198,680.87,195.24,682.56,192.48,684.48Z" transform="translate(-18.54 -90.6)"/><g id="Campbeltown-2" data-name="Campbeltown"><text class="cls-2" transform="translate(0 619.03)">Campbeltown</text></g></g><g id="islay"><path class="cls-3" d="M135.93,642.5h-2.4c-.32-1-1.64-1.18-1.91-2.3a19.12,19.12,0,0,1,.07-6.79,2.38,2.38,0,0,1,1.89-1.92c2.93-.93,3.32-2.26,2.47-5.21-.68-2.34-2.7-3.2-4.07-4.77-.61-.71-1.55-1.42-.84-2.42,1.08-1.52,2.08-3.19,4-3.93.71-.28,1.73-.28,1.71-1.3a1.87,1.87,0,0,0-1.74-1.72c-1.6-.22-3.54-.46-4.49,1.08s-2.28,2.88-2.85,4.76c-.81,2.66-2.6,4.87-4.08,7.21-1.2,1.9-4.68,3-6.91,2.43v-6.24c1.23-1.83,2.53-3.6,3.63-5.49a2.82,2.82,0,0,0,.45-2.24,14.25,14.25,0,0,1-.15-5.92c.35-2.27-.16-5.12,2.82-6.29,1.91-.75,3.77-1.62,5.69-2.32,1.18-.43,2.53-.88,3.23.77.79,1.86,1.63,1.32,2.48.09a20.17,20.17,0,0,1,5.81-5.09c2.09-1.39,4.64-2.17,6.28-4.23h4.32a4,4,0,0,1-.79,3.11,1.84,1.84,0,0,0-.5,2,46.55,46.55,0,0,0,2.1,5,3.53,3.53,0,0,1,.11,3.74c-1.18,2.28-.56,6.51,1.15,7.59a17.66,17.66,0,0,1,3.69,3.58V628.1c-2.48.39-4,2.39-5.44,4-2.12,2.37-4.31,3.56-7.41,3.22a3.22,3.22,0,0,0-3.58,2.05C139.56,639.45,138.62,641.82,135.93,642.5Z" transform="translate(-18.54 -90.6)"/><g id="Islay-2" data-name="Islay"><text class="cls-4" transform="translate(34.16 529.51)">Islay</text></g></g><g id="islands"><path class="cls-5" d="M448.36,139.56c-.56.21-.46.79-.65,1.2-.9,2-1.73,2.18-3.37.8s-3.3-3.34-6.14-1.67c-1.27.76-2.24-.79-2.84-1.93a17,17,0,0,1-1.83-6.09c-.17-1.62-1-1.82-2-1.1a15.41,15.41,0,0,1-7.51,3c-.15,0-.37.06-.44.16-1.65,2.69-4,3-7,3s-5.75-1.43-6.08-4.69c0-.16,0-.33,0-.48-.28-1.22.78-2.93-1-3.6s-2.23,1.44-3.31,2.18c-1.51,1,.33,2.41.28,3.68-1.26.58-2.19.32-2.67-1a6.48,6.48,0,0,0-1.63-2,11.86,11.86,0,0,1-2.78-11.44,27.82,27.82,0,0,0,.52-11.77,3.23,3.23,0,0,1,1.3-3.37,4.7,4.7,0,0,0,1.07-1.27,10.47,10.47,0,0,1,12.54-4.28A5.5,5.5,0,0,1,417,101a2.75,2.75,0,0,1,3.45-1.67c1.62.42,1.62,1.77,1.55,3.09,0,.72.17.88,1,.77a2.76,2.76,0,0,1,3.26,1.83,11.43,11.43,0,0,0,3,4.9c1.54,1.7.95,3.6.36,5.4-.46,1.4-1.92,1-2.61.51-1.77-1.18-2.14-.38-2.09,1.19a2.67,2.67,0,0,1-1.54,2.93c-.78.36-1.36,1.16-1,1.88a2.32,2.32,0,0,0,2.57,1.21c1.55-.26,2.4-1.65,4-1.91,1.88-.31,3-.14,3.7,1.8.57,1.65,1.47,1.79,2.41.19.36-.62.8-1.19,1.1-1.84.41-.86.89-1.53,2-1.34a2.21,2.21,0,0,1,2,1.83c.18,1.14.48,2.38-.55,3.38s-1.19,1.89,0,2.83,2.18.13,2.74-.8c1.5-2.52,3.78-2.26,6.12-2v2.4c-1.1,1.51-3.64,2.07-3,4.76.14.59-.87.5-1.33.75-1.53.86-3,1.81-2.2,3.85.62,1.58,2.91,2,4.64.83a1.53,1.53,0,0,1,1.89-.11Z" transform="translate(-18.54 -90.6)"/><path class="cls-5" d="M233.32,666.6c-.1-.12-.21-.34-.3-.33-4.13.31-5.47-2.87-6.63-5.75-.53-1.33-1.49-1.91-2.19-2.88a7.33,7.33,0,0,1-1.09-7,8.34,8.34,0,0,0-1.11-8.09,12.43,12.43,0,0,1-2.13-5.72c-.18-1.73.32-3.39,1.8-4.08s2.76.66,3.8,2c1-1.44,1.91-2.64,1.27-4.68-.7-2.27.37-4.39,2-6.07a2.5,2.5,0,0,1,3.31-.22,45,45,0,0,1,4.75,3.78c2.69,2.38,3.14,5.24,3.42,8.43a5.61,5.61,0,0,0,1.3,3,2.4,2.4,0,0,1,.24,2.92c-1.26,1.68-.4,2.51.85,3.5a2.61,2.61,0,0,1,1,2.91,15.28,15.28,0,0,0,1.17,9.08c1,2.32.5,4.52.57,6.76S243,665.62,242,666.6Z" transform="translate(-18.54 -90.6)"/><path class="cls-6" d="M38.44,427.08c1.26-.57,1.86-2,3.81-1.89,1.37.09,2.09-1.95,1.83-3.58-.45-2.86-.07-3.47,2.61-3.65,1.07-.07,2.05-.15,2.39-1.47.22-.84.94-1,1.73-.87a1.27,1.27,0,0,1,1,1.6c-.31,2.27.64,4.21,1.55,6.14.38.81.3,1.6-.25,1.92-1.73,1-2.53,3.06-5,3.4-2.91.41-4.55,3.85-4.08,7,.19,1.26.3,2.67-1.57,2.86-.94.1-1.69,0-1.72-1.31-.06-2.8-1.66-5.17-2.38-7.79Z" transform="translate(-18.54 -90.6)"/><path class="cls-7" d="M424.84,90.6c.36.29.88.52,1.05.9,1.05,2.31,2.54,2.13,4.4,1a2.88,2.88,0,0,1,3.73.34A4,4,0,0,0,436.34,94a2.09,2.09,0,0,1,1.87,2.14A3.23,3.23,0,0,1,436.8,99a1,1,0,0,1-1.33,0,1.09,1.09,0,0,1-.39-1.47c.52-1.1.37-1.94-1-2.07-.6,0-1.44-.8-1.89.19-.3.67.27,1.17.69,1.63,1.53,1.7,1.28,2.56-.83,3.48-6.76,3-6.06,1.69-10.71-3.54-2.57-2.88-.07-4.54,1.06-6.6Z" transform="translate(-18.54 -90.6)"/><path class="cls-5" d="M105.16,234.78c0-1,0-1.6,0-2.16.1-1-.49-2.41.88-2.65a2.89,2.89,0,0,1,3,1.94,8.55,8.55,0,0,0,2.26,3.29c.48.4.9,1.06,1.62.7s.35-1.14.42-1.73a2.43,2.43,0,0,0-.66-2c-2.81-3.31-2.25-5.51,1.86-6.64a4.74,4.74,0,0,0,3.14-2.24,2.91,2.91,0,0,1,2.43-1.69,4.56,4.56,0,0,0,4.24-2.26c.88-1.37,3.27-1.81,5.15-2a18.93,18.93,0,0,0,4.48-1.52c.34-.12.83-.52.82-.77-.09-2.73,2.36-3.08,4-3.8a9.06,9.06,0,0,0,3.69-3.17c1.58-2.15,3.14-3.84,6.25-4.49,3.3-.7,5.78-3.74,7.87-6.58a2.82,2.82,0,0,1,4.19-.71c3.54,2.69,5.68,10.28,3.53,14.28-1.31,2.42-2.44,4.85-1.19,8,.92,2.34-.64,4.69-1.89,7-1.36,2.55-3.66,4.18-5,6.63-.29.55-.75.69-1.23,1-3.09,1.77-3.75,4.81-1.59,7.53a2.51,2.51,0,0,1,.55,2.64c-.43,1-1.48.75-2.33.76-3.57.08-3.49.06-3.34,3.6a11.75,11.75,0,0,1-.57,4.21c-.53,1.54-2,1.81-3.52,1.91-.81.05-2.24.1-2.33,1.2s1.23,1,2,1.23a3.59,3.59,0,0,1,3,4.21,30.22,30.22,0,0,0,.62,6.16c.45,3.78-.47,5.3-4,5.83-2,.3-3.44,1.53-3.23,3.5.29,2.82-1.1,4.42-3.07,6-2.48,1.94-4.7,4.3-8.26,4a15.68,15.68,0,0,1-4.61-1c-1.09-.46-2.11-.83-3.12.06s-.65,2.1-.32,3.29c.38,1.38,1.67,2.31,1.57,3.93-.13,1.93-1.12,2.78-2.91,2.07a4.4,4.4,0,0,1-2.11-1.47,7.93,7.93,0,0,0-4.13-3c-1-.31-1.22,0-1.76.45-.71.58-.34,1.17,0,1.68a14.81,14.81,0,0,0,1.72,2.28c2.18,2.23.65,5.68-2.28,6.76-5.47,2-10.56,4.48-13.32,10.17-.62,1.28-2.4,1.76-4,1.61-1.38-.13-1.68-1.09-2-2.27a7.79,7.79,0,0,0-2.32-3.26,36.37,36.37,0,0,1-6.82-8.54c-.64-1.19-1.54-2.4-.25-3.36A2.72,2.72,0,0,1,86,296c1.38,1.84,2.19,1.23,3.38-.09a7.6,7.6,0,0,1,2.83-2.13c2.19-.79,2.82-2.75,3.61-4.47,1.55-3.38,1.91-3.84,5.62-3.22,1.57.26,2.68.13,3.28-1.33s-.76-1.91-1.6-2.69a16.17,16.17,0,0,0-12.46-4.28c-2.07.1-4.17-.21-4.28-3.23,0-1.37-1.21-2.33-2.45-3.05a7.79,7.79,0,0,1-3.25-3.06c-.57-1.08-.81-2.26,0-3.1a2.35,2.35,0,0,1,3.08,0,12.53,12.53,0,0,0,5.63,2.27c.82.09,1.61.38,2.16-.45s0-1.65-.52-2.17c-1.36-1.48-2.14-3.42-3.46-4.81-1.61-1.7-2.3-3.81-3.29-5.74-1.55-3,.82-5.41,2.15-7.81a9,9,0,0,0,1.41-2.94,2.8,2.8,0,0,1,1.91-2.48,2.83,2.83,0,0,0,2-3.35c-.36-2.33.9-2.52,2.7-2.09,2.39.57,4.43,2.1,7,2.38,1.13.13.86,1.34.92,2.2s-.09,2.34,1.34,2.35,1.62-1.2,1.54-2.42C105.05,238.25,105.52,236.28,105.16,234.78Z" transform="translate(-18.54 -90.6)"/><path class="cls-5" d="M126.14,345.67c-1.85-1-2.33-3.52-4.74-4a1.42,1.42,0,0,1-.77-2c.77-1.61.69-3.41,1.23-5.06.25-.8,0-2.09,1.21-2s2.46.68,2.65,2c.23,1.63,1.51,2.81,1.58,4.47,0,.75.72.85,1.31,1.14,1.76.85,3.43,1.87,5.1,2.87a1.56,1.56,0,0,1,.73,1.44c-.11,2.53,1.63,2.59,3.36,2.34s4.25-.61,4.23-3c0-4.43.79-8.9-.73-13.3-.57-1.64-.11-3.22,1.56-4.6s3.19-3.13,3.09-5.59c0-1.37.77-2,1.86-2.48a2.57,2.57,0,0,1,3.06.49,10.73,10.73,0,0,1,3.75,6.16,4.37,4.37,0,0,0,2.18,3,12.48,12.48,0,0,1,5.13,7,37.87,37.87,0,0,1,1.72,10.25,56.58,56.58,0,0,1-.39,12.4,6.6,6.6,0,0,1-.95,2.4c-1.55,2.58-1.24,3.7,1.49,5,1.06.5,1.49,1.07,1,2.2-.94,2.21-.95,4.31.86,6.15a.76.76,0,0,1,.22.41c-.09,4.13,3.78,5.41,5.77,8,.3.38.66.33,1-.08.63-.83.17-4.21-.7-4.58-3.25-1.37-4-4.22-4.36-7.27-.5-4.34,1.11-8.46,1.45-12.71a1.12,1.12,0,0,1,.78-1.11,7.46,7.46,0,0,0,3.42-2.07,1.92,1.92,0,0,1,2.45-.15c.77.55.62,1.39.25,2.17-.27.56-.21,1.28-.78,1.7-2.16,1.59-2.37,3.78-1.8,6.14.9,3.79.67,7.71,1.37,11.53a2.35,2.35,0,0,0,2.32,2.2c2.5.37,3.48,1.68,3.49,4.21,0,1.6-.09,3.21,0,4.8.19,2.5,2.32,3.9,4.36,2.57,3.79-2.48,7.89-2.63,12.15-2.53,1.59,0,3.27-.74,4.6.81a3.1,3.1,0,0,1,.92,1.34,10.92,10.92,0,0,1-7.52,12.91c-.3.09-.63.34-.9.28-1.39-.31-2.71-.5-3.19,1.32-.33,1.25-1.1,2.42-.51,3.86a1.61,1.61,0,0,1-.47,2.13c-4,2.79-6.35,7-9.46,10.54-2.37,2.69-6.14,4.24-8.76,3.36a2.33,2.33,0,0,1-1.83-2.42,11,11,0,0,1,1.71-6.33c1.35-2.16,2.74-4.31,2.62-7,0-.83.5-1.13,1.08-1.38a5.71,5.71,0,0,0,2.35-2c.94-1.25.51-2.8-.88-2.92a5.9,5.9,0,0,1-3.55-1.73c-1-.93-2-.92-2.54.6a39.22,39.22,0,0,0-1.66,4.19,2.72,2.72,0,0,1-2.53,2.11c-2.68.48-4-1.51-3.14-5,.21-.89.59-1.72-.21-2.41s-1.39-2.24-2.75-2-1.24,1.71-1.65,2.8c-.92,2.48-3.33,1.44-5.09,1.59a18.75,18.75,0,0,0-3.5.08c-1.74.45-2.62-.7-2.19-2.09.56-1.84-.62-2.43-1.65-2.36-2.54.15-3.45-1.57-4.57-3.21-.39-.57-.43-1.57-1.22-1.65-2.9-.29-3.4-2.42-3.7-4.68-.21-1.56-1.54-2.49-2-4-1-3.66-.51-5.36,2.67-7.25.61-.37,1.28-.65,1.86-1.06s1.13-1-.16-1.39c-1.06-.31-2-.95-3.1-1.2a3.52,3.52,0,0,1-2.86-2.59c-.53-2.47-2.57-2.67-4.31-3.12-1.47-.38-2.07.85-2.23,2.14a4.18,4.18,0,0,0,.27,2.11,2.44,2.44,0,0,1-.53,2.88c-.83.72-1.76.18-2.67-.19-3.12-1.29-6.54-1.78-9.41-3.79a5,5,0,0,1-2.41-5c.28-2.19-.21-3.82-2.16-5s-2-3.11-.24-4.31a4.89,4.89,0,0,0,1.77-3,19.35,19.35,0,0,1,1.07-3.14c.4-.8.49-2.18,1.62-2.12a3.39,3.39,0,0,1,3,2.09c.69,1.59,1,3.33,1.93,4.84.65,1,1.37,2,2.62,1.44s1-1.88.45-2.92a7.36,7.36,0,0,1-.62-3c-.11-1.78.41-2.75,2.39-2.6A2.6,2.6,0,0,0,126.14,345.67Z" transform="translate(-18.54 -90.6)"/><path class="cls-5" d="M198.38,441.28c2.68-.34,4.86.55,7.05,1.41.28.11.5.53.76.54,4.58.1,7.37,3.16,10.22,6.13,1.52,1.58,3,3.05,3.09,5.61a32.4,32.4,0,0,0,1.42,7.43,3.44,3.44,0,0,0,3.35,2.71c4,.45,8.2-.88,12.07,1.26,1.31.72,2.19,1.37,1.54,2.9s-.51,4.2-3.25,3.32c-3.13-1-4.85,0-6.32,2.77s-3.32,5.47-6.93,6.29c-2,.44-2.65,2.88-4.24,4a9.92,9.92,0,0,0-3.57,5.49,13.11,13.11,0,0,1-4.69,6.19,51.53,51.53,0,0,1-7.8,4.84,6.93,6.93,0,0,1-9-2.15,4.73,4.73,0,0,0-4.41-2.36c-3.38.38-6.38-1.14-9.12-2.32a11.79,11.79,0,0,1-6.6-7.9,11.76,11.76,0,0,0-.74-2.44c-.59-1.21-1.48-2.65-.22-4s2.69-.73,4.07-.52a18.33,18.33,0,0,0,10.34-1.49c1.64-.73,3.52-.85,5-2,.55-.44,1.29-.64,1.81-1.11a1.76,1.76,0,0,0,.7-1.69c-.23-.87-1-.56-1.62-.57A112.07,112.07,0,0,0,173.74,475a45.15,45.15,0,0,1-17.92-1c-2.62-.67-3.85-4.72-2-7.67,2.55-4.16,6.55-4.13,10.45-4.72a82.8,82.8,0,0,1,13.36-.46c1.66,0,2.41-1.11,3.23-2.13a19.42,19.42,0,0,0,2.47-3.79c1.18-2.51,3.2-3.29,5.74-3.22,1.16,0,2.29.06,2.71-1.36a5.28,5.28,0,0,0-.57-5c-.81-1.07-1.86-1-3-.6-1.51.49-3.13.24-4.7.63s-2.41-.7-1.71-2.3a68.24,68.24,0,0,0,4.65-15.87c.31-1.78,2.39-2.51,4.17-2.83.94-.17,2,0,2.56-.92s1-1.24,2.1-.67,1.72.93,1.65,2.26c-.15,2.54,1.15,5.14-.44,7.67-.42.68.19,1.61.72,2.16A5.73,5.73,0,0,1,198.38,441.28Z" transform="translate(-18.54 -90.6)"/><path class="cls-5" d="M199.71,515.53c.39,4.55-2,7.52-4.79,10.53a17.74,17.74,0,0,1-5.18,4.18c-3,1.47-6,1.89-9,.13a3.75,3.75,0,0,0-3.21-.32,28.77,28.77,0,0,1-4,.71c-1.76.27-3.57.66-4.57,2.23-1.76,2.77-4.25,2.37-6.87,2-4.75-.67-9.4-.88-13.86,1.65-1.33.75-2.91.92-4.21,2.08-.74.65-2.4.51-3.48-.61-2.93-3-3.14-6.7-2.64-10.47.16-1.26,1.64-1.91,3-1.62a40.64,40.64,0,0,0,10.88.87c2.62-.17,5.21-.56,7.85-.48,1,0,2.35-.25,2.38-1.45s-1.29-1.5-2.26-1.81a3.14,3.14,0,0,0-1.43,0c-3,.53-4.36-.77-3.16-3.48a33.38,33.38,0,0,1,4.24-7.58c2.19-2.72,4.86-2.86,7.7-2.29,1.91.38,2.58-.91,3.05-1.93.55-1.18-.35-2.35-1.63-2.71-1.67-.45-3.34-.79-5,.44s-3.4,1.8-5.3,0c-1.52-1.47-3.4-2.56-4.66-4.33-1-1.4-2.69-1.7-4.13-2.21-3-1.06-3.59-2.92-3.68-6-.17-5.69,8.78-13.49,13.53-12.76a4.86,4.86,0,0,1,2.8,1.13,48,48,0,0,1,9.22,11,22.31,22.31,0,0,1,1.85,4.32c1.45,4.58,1.5,4.33,6.37,4.82,5.24.53,10.53,1.44,15,4.61C197.78,508.44,200.29,511.3,199.71,515.53Z" transform="translate(-18.54 -90.6)"/><path class="cls-8" d="M167.47,610.44a9.16,9.16,0,0,1-9.08-11.22,28.61,28.61,0,0,1,4.61-9.79c.66-1,1.68-1.86,3-1.32.75.3,1.26-.07,1.8-.27,1.24-.44,3-.7,3.3-1.93.23-1-1.29-1.8-2.31-2.44s-.91-1.77-.52-2.77a19.31,19.31,0,0,1,8-9.41c3.48-2.22,6.71-4.76,10-7.23a8.11,8.11,0,0,0,2.26-2.75c.78-1.5,3.55-2.29,5.23-1.56,1.87.8,1.18,2.46,1,3.73-.68,4.55-3.54,8-6.09,11.62a26.94,26.94,0,0,0-4.14,7.15,5.32,5.32,0,0,1-2.23,3.18c-2.74,1.76-2.17,4.91-2.71,7.52-.49,2.33-1.27,4.13-3.67,5a7.52,7.52,0,0,0-4,4.48,17,17,0,0,0-1.41,5.23C170.37,610,169.3,610.64,167.47,610.44Z" transform="translate(-18.54 -90.6)"/><path class="cls-5" d="M66.73,395.65c0,1.39.06,2.2-.86,2.6-1.93.83-1.39,2.17-.66,3.49A8.74,8.74,0,0,1,63.8,412a1.81,1.81,0,0,1-3.19-.8,6.7,6.7,0,0,0-3.66-4c-1.79-.89-2.24-2.78-2.66-4.58a7.12,7.12,0,0,0-.54-2.28c-2.1-3.15-1-6.56-.84-9.85.1-1.84.36-3.57-.35-5.39a4.54,4.54,0,0,1,1.16-5.08c1.8-1.6,1.85-3.6,1.93-5.54a26.84,26.84,0,0,0-.26-7.37c-.58-2.44.61-5,2.14-5.54a4.07,4.07,0,0,1,4.06,1.27,16,16,0,0,0,2.78,2.1,4.79,4.79,0,0,1,2.52,3.25,3.48,3.48,0,0,0,1.62,2.47c1.58,1,1.58,3.13,1.45,4.56-.2,2.18.26,4.68-2.09,6.48C66.24,383,66,385.49,64.32,387c-.31.27.09,1.48.32,2.21C65.35,391.53,66.14,393.85,66.73,395.65Z" transform="translate(-18.54 -90.6)"/><path class="cls-6" d="M75.09,338.49c3.56,1.47,4.29,4,1.74,6.33-1.61,1.47-3.76.66-5.67.43-3.33-.41-6.4-1.87-9.62-2.74-1.63-.45-1.85-1.8-1.18-3.28a2.89,2.89,0,0,0-2.51-4.29c-1.27-.09-2.55,0-3.83,0-4.24,0-6-1.86-6-6.1a7.5,7.5,0,0,1,3.44-6.6c2-1.39,3.85-1,4.66,1.29a2.4,2.4,0,0,0,1.82,1.66c.93.22,1.07-.77,1.41-1.35.66-1.14,2.12-1.62,2.4-3.14a1,1,0,0,1,1.61-.36c3.06,2.74,5.74.86,8.36-.74a6.11,6.11,0,0,1,3.59-1c2,.08,2.54.81,1.83,2.7a36.17,36.17,0,0,0-1.43,3.77c-1,4.12-.13,6.59,3.69,8.72a2,2,0,0,1,1.26,2.27c-.18,1.36-1.21,1.29-2.17,1.26A3.86,3.86,0,0,0,75.09,338.49Z" transform="translate(-18.54 -90.6)"/><path class="cls-6" d="M414.64,155.21a4.45,4.45,0,0,0,1.19.1c2.65-.81,3.48-.42,4.48,2.1.23.59.28,1.06-.46,1.32-1.47.52-2.86,1.52-4.54.73a1.48,1.48,0,0,0-1.58.1c-2.4,1.66-4.91-.26-7.37.19-.63.12-.76-.72-1.05-1.17-1.78-2.78-3.11-5.89-5.55-8.2-1.19-1.13-1.37-2.62-1.83-4a4,4,0,0,0-3.36-3c-2.06-.32-2.66-2.1-1.21-3.73a4.52,4.52,0,0,0,1.3-2.92c.13-2,4.66-3.82,6.5-2.71,2,1.22,3.51,3.14,5.68,4.17a6.85,6.85,0,0,0,2.1.92,5.29,5.29,0,0,1,4.4,5c.25,2.59.57,5.19,2.42,7.28C417.14,153,415.21,153.88,414.64,155.21Z" transform="translate(-18.54 -90.6)"/><path class="cls-6" d="M151.72,428.05c0,3.31-3.8,7.22-6.75,7a2.94,2.94,0,0,1-2.58-1.9c-.75-2.67-2.94-4.08-4.65-5.91s-1.86-3.15-.09-5.08a43.57,43.57,0,0,1,4.24-3.8c1.82-1.53,3.73-1.85,5.64-.52s4,2.39,3.72,5.22C151.08,424.85,152.08,426.51,151.72,428.05Z" transform="translate(-18.54 -90.6)"/><path class="cls-6" d="M55.72,352.08a4.7,4.7,0,0,1,6.43-4.5c2.26.73,4.45,1.65,6.64,2.56,1.69.71,1.92,2.57.19,3.74-1.89,1.29-.8,1.76.29,2.47q2.57,1.68.15,3.48c-1.94,1.45-7.81,1.62-9.78.28A10.33,10.33,0,0,1,55.72,352.08Z" transform="translate(-18.54 -90.6)"/><path class="cls-6" d="M85,501.2c-.41-1.43.68-2.7,1.07-4.14.23-.84,1-.83,1.77-.87,3.41-.16,6.84.39,10.24-.42A1.66,1.66,0,0,1,100.3,497a4.81,4.81,0,0,1-1.55,4.74,3.11,3.11,0,0,1-1.52.64c-2.52.25-3.42,2.07-4,4.12a2.84,2.84,0,0,1-4.45,1.78C86.15,506.7,85,504.57,85,501.2Z" transform="translate(-18.54 -90.6)"/><path class="cls-6" d="M432.53,163.09c0-.1,0-.55.14-.7,2.19-1.75.16-3.16-.65-4.19-1.1-1.42-1-2.39.07-3.51.84-.88,1-1.63-.28-2.16-.71-.29-1.42-.49-.93-1.49.42-.85,1-1.44,2-1.17a3.89,3.89,0,0,1,.68.23c2,1.05,3.84,1.91,2.32-1.75-.14-.34-.06-.9.4-1,1.46-.32,1.8-1.42,2-2.65a1.26,1.26,0,0,1,1-1.23c.76-.18,1.21.34,1.58.85,1,1.44.58,3-1.11,3.92-.41.22-1,.44-.56,1,2.29,3.05.81,5.91-.73,8.47-1.26,2.11-1.13,3.54.59,5.14.7.66,1.21,1.82.37,2.56-1.05.91-1.24,2.78-2.94,2.85C435.35,168.32,432.52,164.54,432.53,163.09Z" transform="translate(-18.54 -90.6)"/><path class="cls-9" d="M118.43,488.07c-.81-.46-2.13-.21-2.57-1.33a3.3,3.3,0,0,1,.75-3.11,31.08,31.08,0,0,1,9.61-8.65,5.38,5.38,0,0,1,2.48-.64c1.37,0,2.34.69,1.82,2.24-.88,2.61-1.06,5.82-5.08,5.82-.84,0-1.55,1.18-1.46,1.94.29,2.53-1.43,2.8-3.16,3.19Z" transform="translate(-18.54 -90.6)"/><g id="Islands-2" data-name="Islands"><text class="cls-10" transform="translate(27.08 359.92)">Islands</text></g></g><g id="lowlands"><path class="cls-11" d="M241,743.6v-9.12c3.1-2.4,5.95-5.29,10.39-5,.42,0,.87-.8,1.2-1.39,2.93-5.31,4.35-11.2,6.59-16.79,2-5.07,4.84-9.43,9.59-12.33.89-.55,1.86-1.09,1.95-2.22.35-4.17,1.82-8.2,1.48-12.44a3.34,3.34,0,0,1,1.67-3.32c2.57-1.86,5.4-4.22,5.34-7.5-.08-5,2.83-6.54,6.68-7.65a11.29,11.29,0,0,1,2-.48,2.49,2.49,0,0,0,2.5-2.83c0-1.2,0-2.4,0-3.6.06-2.94-.39-5.61-2.79-7.73a3.41,3.41,0,0,1-.64-4.36,3.16,3.16,0,0,0,.3-2.72c-1.73-4.84-4.54-8.38-10-9a2,2,0,0,1-1.74-1c-1.31-2.63-3.6-4.3-5.84-6-3.39-2.63-3.61-4-1.3-7.49a18.8,18.8,0,0,1,2-2.93,3.24,3.24,0,0,0,.75-3.55A45.82,45.82,0,0,1,268,600.36c-.37-4.94.1-9.6,3.08-13.74a2,2,0,0,1,1.57-1c2.93-.19,5.64-.66,8.63,1a43.69,43.69,0,0,0,13.91,4.62c2.76.45,5.93,1.09,8.4-1.24a10.66,10.66,0,0,1,3.11-2.14,5.28,5.28,0,0,0,2.67-2.58c.81-1.62,2.29-3.66,3.28-4.09,2.16-1,3.87-2.72,6.21-3.28,5.26-1.25,10.09-3.77,15.27-5.27a7.3,7.3,0,0,0,2.66-1.49c3.61-3.16,6.43-7.08,9.8-10.5,2.93-3,5-6.84,8.12-9.82,1.89-1.84,3.77-4,6.18-4.81,5.07-1.63,8.63-5.29,12.73-8.25,1.35-1,2.54-2.37,4-2.89,2.56-.89,4.38-2.68,4.46-5.4a44.11,44.11,0,0,0,0-5.75c-.24-2.42.79-3.2,3-2.87,4.27.63,8.57.44,12.87.5a4.12,4.12,0,0,0,2.71-.67,23.35,23.35,0,0,1,4.57-2.5c3.82-1.9,7.46-4,9.75-7.79a2.18,2.18,0,0,1,2.05-1,12.24,12.24,0,0,0,4-.58c2.94-.67,6.16-1,7.66-4.27h5.28a5.17,5.17,0,0,0,2.55,1c2.17.34,4.35.69,6.49,1.18.61.14,1.44.42,1.47,1.35s-.85.66-1.37.87c-3.15,1.28-6.65,1-9.81,2.33-6.2,2.65-11.64,6.13-14.71,12.45-.43.19-.43.39,0,.58l.45.45c.19.43.39.43.58,0,4.75-1.59,9.12-4.06,13.75-5.9a21.67,21.67,0,0,0,7.21-4.4,3.65,3.65,0,0,1,4.06-1,33.16,33.16,0,0,0,5.3,1.15c2.89.37,3.16.52,2.71,3.39-.28,1.73-.32,3.64-2.09,4.81-.83.55-1.21,1.51-.17,2.15,1.81,1.11,3,2.88,4.58,4.17a7.52,7.52,0,0,0,6.2,1.94c2.8-.42,5.55.21,7.09,3.15a7.72,7.72,0,0,0,1.56,2.07c1.74,1.59,1.45,3.29.2,4.86a23.32,23.32,0,0,1-4.8,4.49c-3,2.16-6.77,2.88-9.83,5s-5.75,2-8.52-.67c-1.69-1.65-3.89-2.64-6.16-.77-1.64,1.36-3.65,2.19-5.11,3.83-2.5,2.83-5.15,5.54-7.76,8.27a5.62,5.62,0,0,1-1.65,1.32,4.47,4.47,0,0,0-2.84,4.24c-.15,3-1.33,4-4.38,3.89a12.38,12.38,0,0,0-6.27,1.54c-2.94,1.61-6.28,2.56-8.88,4.83-.79.69-1.71.46-2.66,0a17.13,17.13,0,0,0-4.95-1.93,12.67,12.67,0,0,1-7.24-3.13c-1-.9-1.88-.79-3.05-.57-4.77.91-9.7,2.44-13.45-2.44-.47-.61-1.12-1-1.85-.38a1.39,1.39,0,0,0-.28,1.95,6.65,6.65,0,0,1,.84,2.16c1.47,4.82,3.62,6.43,8.13,6.13a9,9,0,0,0,2.73-.67c3.36-1.34,6.25-.68,9,1.62a7.74,7.74,0,0,0,5.7,1.94,54.64,54.64,0,0,1,8,0c1.89.09,3.73-.12,5.3,1.43a4.7,4.7,0,0,0,3.56,1c2.71-.09,5.44.07,8.15-.06a7.23,7.23,0,0,1,6.51,2.67,4.68,4.68,0,0,0,6.06,1.53c1.22-.54,2.49-1,3.75-1.4,6.94-2.36,11.55-7.13,14.39-13.78.65-1.54,1.66-2.6,3.63-2.46,2.14.15,4.37-.28,6.46.1,3.54.65,7.91,0,9,5.29.66,3.27,3.06,4.41,6.36,3.78,4.53-.87,7.7,2.07,10,4.94,4.22,5.22,9.24,7.12,15.61,6.06,2.65-.44,4.46,1,6.49,2.27a4.39,4.39,0,0,1,2,3.46,2.71,2.71,0,0,0,1.52,1.68c2.95,1.76,4.75,4.44,6.24,7.5,1.39,2.85,2.27,6.07,5,8.15v3.84c-.63,1.76-1.38,3.5-1.86,5.3a15.56,15.56,0,0,1-6.62,9.07c-2.75,1.88-5.35,4.06-6.88,7-2.93,5.64-2.59,11.34.56,16.88,2.93,5.14,2.85,10.2-2.15,14.41a45.94,45.94,0,0,0-5.65,5.32,20.18,20.18,0,0,1-7.2,5.56,94.67,94.67,0,0,0-12,6.12,24.85,24.85,0,0,0-8.83,8.84c-1.25,2.29-2.4,4.74-3.44,7.2a25,25,0,0,1-4.48,6.8c-3.15,3.52-7.5,5.12-11.26,7.63-2.94,1.95-5.62,4-7.37,7.12-2.3,4.06-3.16,4.5-7.43,3-1.27-.44-1.86-.34-2.42.87a13.65,13.65,0,0,0-1.34,4.49,37.32,37.32,0,0,1-1,5.54c-.37,1.53-1.47,1.82-2.94,1.63-5.24-.68-10.47-1.61-15.73-1.79-8.87-.29-17.75,0-26.63-.14-1.92,0-2.76.59-2.94,2.32a16.74,16.74,0,0,0,.07,5.24,6.18,6.18,0,0,1-5.76,7.4c-2.37.1-4.79-.47-7.11.38a19.72,19.72,0,0,1-7.47,1.07c-3.48-.11-3.86.29-3.8,3.76,0,1.58-.12,2.66-2,3.06-1.34.28-2.44,1.37-3.56,2.27-2,1.64-3.53,4-6.37,4.59-1.24.27-2.48.16-3.74.52-3.36.95-4.24.19-4.47-3.32-.06-.85-.1-1.7-1.17-1.73s-1.21.78-1.25,1.65.33,1.81-.62,2.42a35.52,35.52,0,0,1-6.89-1,.87.87,0,0,1-.13-.45c0-3.82-4.42-4.78-5.31-8.06-.06-.19-.73-.18-1.07-.34-2.18-1.06-4.73-.7-6.89-2.22-2.33-1.64-4.75-3.07-6.35-5.54-.44-.68-1.15-1.5-2-.28a7.64,7.64,0,0,0,.46,9.17,8.07,8.07,0,0,0,3.52,1.85c1.66.57,3.1,2.06,2,3.59-2.73,3.81-2.74,7.51-1.29,11.78,1.14,3.38-.95,5.82-4,5.11-3.43-.8-7-1.34-10.16-2.89-1.52-.73-3.65-1.38-3-4,.08-.35,0-1-.2-1.12-2.24-1.54-3.39-4.26-5.19-5.77a79.11,79.11,0,0,1-7.09-6.6,6.44,6.44,0,0,0-5.06-2.18,7.07,7.07,0,0,1-4.49-1.23c-3.41-2.63-6.8-2.8-10.58-.48-2,1.22-4.09,2.39-3.8,5.12a21.52,21.52,0,0,0,1.38,6.41,120,120,0,0,1,6.73,19H266.4c-.21-.83-1-1-1.6-1.29-4.83-2.54-4.95-2.81-3.79-8.14a3.87,3.87,0,0,0-1.29-4.26,6.26,6.26,0,0,1-2.12-3.26,28.49,28.49,0,0,0-12.29-16.19,5.2,5.2,0,0,1-2.5-4.64A13.69,13.69,0,0,0,241,743.6Z" transform="translate(-18.54 -90.6)"/><g id="Lowlands-2" data-name="Lowlands"><text class="cls-12" transform="translate(308 581.27)">Lowlands</text></g></g><g id="highlands"><path class="cls-13" d="M540.48,354.72c-1.13,3.62-4.22,6-5.83,9.37a11.69,11.69,0,0,0-1.09,2.59,8,8,0,0,1-4.68,5.92c-4.44,1.84-5.7,5.85-6.94,9.53a105.78,105.78,0,0,1-5.5,13.13,6,6,0,0,0,0,4.82,19.88,19.88,0,0,1,0,13.46c-1.64,4.81-4.72,8.83-7,13.25a7.84,7.84,0,0,0-1.05,3.79c0,4.26.48,8.56-1.39,12.66a63.48,63.48,0,0,1-11.12,17c-1.69,1.81-4.45,2.28-6.38,3.92-1,.85-1.82,1.62-1.77,3.15.14,4.14-1.81,7.77-3.38,11.4A41.38,41.38,0,0,0,481,490.21a3.45,3.45,0,0,1-1.39,2.84c-3.24,2-5.46,5.12-7.76,8-1.62,2-3.89,2.24-5.81,3.34-1.09.62-2.06,1.12-2.37,2.37-.54,2.17-1.32,4.14-3.91,4.44-4.32.5-6.2-.2-7.51-3.33-.67-1.59-1.33-1.42-2.69-1.2-1.73.27-3.75,1.09-5-1.26-.42-.79-1.57-.88-2.57-.95a24.43,24.43,0,0,1-6.62-1.49c.18-1,1-.83,1.69-.88a14.57,14.57,0,0,1,7.56,1.85c1.15.56,2.41,1.29,3.59.78,3.09-1.35,5-.22,6.32,2.56.85,1.79,2.35,2.21,4.18,2a3.37,3.37,0,0,0,2.93-2.79,6.07,6.07,0,0,1,4.41-4.31,10.19,10.19,0,0,0,4.57-2.94,62.08,62.08,0,0,1,7.64-7.91c.72-.58.66-1.54.82-2.41a42.56,42.56,0,0,1,3.33-11.12c1.47-3,3.1-6.2,3.18-9.42.1-4.17,2.36-6,5.47-7.57a13.18,13.18,0,0,0,5.06-3.95c3.1-4.43,6.53-8.7,8.55-13.79,1.29-3.25,2.29-6.55,1.41-10.23a8.49,8.49,0,0,1,.87-6c1.5-2.55,2.8-5.2,4.37-7.7,3.66-5.81,5.85-11.78,3-18.72a7.78,7.78,0,0,1,.36-5.87c2-4.75,4.22-9.42,5.8-14.36,1.24-3.88,3.08-7.46,7.23-9.32a6.72,6.72,0,0,0,3.58-4.05,32.41,32.41,0,0,1,5.37-9.49c1.62-2.18,2.51-4.54,1.58-7.39-1.68-5.14-3.19-10.34-4.73-15.53a3,3,0,0,0-1.81-1.95c-2.24-1.17-4.35-2.47-5.32-5.19-.42-1.2-.8-3.09-2.76-3.25a51.94,51.94,0,0,1-7.4-1.62,22.5,22.5,0,0,0-5.89-.81c-2.3.09-4,1.49-5.89,2.47-1.32.68-.58,2.05-1,3a20.68,20.68,0,0,1-2.55,4.82c-2.15,2.6-4.68,5.12-4.85,8.83a39.49,39.49,0,0,0-.08,6.7,22.83,22.83,0,0,1-4.47,16.26,25.42,25.42,0,0,0-4.7,18.39,6.67,6.67,0,0,1-1.49,4.92,113.55,113.55,0,0,1-13,14c-3.07,2.75-6.81,4.82-11,4.5a65.83,65.83,0,0,1-15.56-3.36c-5.81-1.93-11.53-2.75-17.35.16a14.09,14.09,0,0,1-5.59,1.93c-6.68.35-13.14-.81-19.61-2.21a31.68,31.68,0,0,0-10.65-.41,35.76,35.76,0,0,1-13.56-.56c-7-1.89-13.32-5.27-19.61-8.73-.67-.37-1.25-.74-1.25-1.59,4,1.41,7.49,3.76,11.24,5.6a41.21,41.21,0,0,0,20.2,4.47c.79,0,1.85.43,2.16-.87a25.62,25.62,0,0,1,11.78,0c2.54.62,5.2.48,7.61,1.4,3.81,1.46,7.74,1,11.57.76,2.39-.17,4.69-1.66,7-2.55a20.39,20.39,0,0,1,12.53-.46c2.5.63,5,1.41,7.49,2,3.5.78,7,1.57,10.51,2.27,3.07.62,5.59-.68,7.71-2,3.81-2.33,6.85-5.74,9.76-9.22,1.89-2.28,4.13-4.28,6-6.64a5.21,5.21,0,0,0,1.17-3.75c-.23-3,.23-6-.39-9-.36-1.78,1-3.41,2-4.9a59.15,59.15,0,0,0,7-13.27,8.59,8.59,0,0,0,.58-3c0-2.4.21-4.82-.05-7.19A15.84,15.84,0,0,1,498,331.69c1.94-2.24,3.73-4.48,3.68-7.7,0-.71.64-1.41,1.48-2,5-3.24,10-2.63,15.4-1.18,2.06.55,4.15,1.58,6.45,1.25,1-.13,1.18.58,1.61,1.35,1.31,2.35,2.23,5,4.71,6.55.2.12.35.46.53.47,3.79.15,3.58,3.3,4.28,5.73A114.65,114.65,0,0,0,540.48,349Z" transform="translate(-18.54 -90.6)"/><path class="cls-14" d="M250.52,286.6c-3.29-3.64-7.51-6.3-10.69-10.05-.46-.54-1.11-.92-1.32-1.67-1-3.49-3.4-5.18-6.87-5.71-1.58-.24-2.28-1.13-2.31-2.94,0-1.59-.94-3.12-.88-4.85.11-3.08,1-3.92,3.91-3.05a19.65,19.65,0,0,1,4.53,2c3.22,1.95,5.21.91,5.54-2.91A9.73,9.73,0,0,0,241.1,252c-2.12-4-4.4-8-6.59-12a7.48,7.48,0,0,1-.57-1.54c-.63-2.2.24-3.48,2.47-3.21,6.65.79,13.09-2.08,19.75-1,1.14.18,1.44-.55,1.25-1.64a11.76,11.76,0,0,0-2.66-5.45c-3.15-3.87-4.32-8.14-2.32-13a3.69,3.69,0,0,1,6.13-.9c.34.42.34,1.46,1.2.88a1.3,1.3,0,0,0,.14-1.94c-1.49-1.69-1.09-3.7-1.2-5.65-.09-1.46.91-2.53,1.16-3.73s-2.07-.92-2.67-2.27c-.94-2.14-.07-7.15,2.08-8,5.68-2.22,7.08-6.38,6.17-11.88-.39-2.38.55-3,3-3.16,5-.24,9.24,1.89,13.23,4.26a40.41,40.41,0,0,0,13.39,5.43,14.31,14.31,0,0,1,2.05.52c2.16.76,2.58,1.86,1.26,3.74-1.8,2.55-2.47,5.53-3.58,8.38,4.62-3.75,9-7.69,9.88-14,.27-1.93,1.18-1.95,2.68-2.1,3.25-.33,5.51.89,7.48,3.44.91,1.19,2.19,2.21,3.22,3.38a3.1,3.1,0,0,1,.2,3.94c-1.21,1.91-2.64,3.68-4,5.51-.8,1.1-1.25,2.27-.33,3.49,1.21,1.59.59,4.19,3.11,5.31.09-1.6,1.06-2.54,1.93-3.68,1.37-1.81,1.28-4.42,1.64-6.73.15-1-.09-2.1.1-3.11.59-3.15,1.61-3.63,6.19-4.33,6-.93,12-1.83,17.37-5.41a9.11,9.11,0,0,1,9.11-.67c6.05,2.55,12.46,3.65,18.56-.34a30.4,30.4,0,0,0,4.79-3.71c3.32-3.27,7.56-2.37,11.59-2,3.77.3,7,2.8,10.93,2.69.92,0,1.75.09,2.29-.67s.08-1.7-.36-2.45a5,5,0,0,0-1.1-1.25,3,3,0,0,1-.95-3.58c.47-1.7,1.6-1.14,2.6-1.25.39,0,.8,0,1-.48h1.92c1.47,1.69,3.12,1.86,5.4,1.57,4.46-.58,8.89.48,13.26,1.49a19.9,19.9,0,0,0,5.85.78c1.11-.07,2,.24,1.88,1.55-.14,2.64,0,5.17-1.14,7.86a78.67,78.67,0,0,1-4.74,9.89c-.78,1.29,1,2.77,1.7,4.1,1,1.87,3,3.27,2.78,5.79a6.28,6.28,0,0,1-1.1,3.48,7.9,7.9,0,0,0-1.11,6.09c.57,3,.11,3.9-2.65,5.48a8.3,8.3,0,0,0-3.1,2.92c-1.11,2-2.87,3.48-4.19,5.31a9.54,9.54,0,0,1-7.65,4.14c-3.21.09-5.16,2.54-7.73,3.8s-3.94,3.57-5.9,5.36c-.67.61-.43,1.13-.3,1.88.48,2.75,0,5.23-2.78,6.67l.48-2.32a2.8,2.8,0,0,0,1.27-3.5,6.05,6.05,0,0,1,.17-3.7,3,3,0,0,0,1.44-1.44,10.39,10.39,0,0,0,2.88-2.88c.43-.18.86-.35,1.28-.55,3.3-1.52,5.88-4.42,10-4.56a5.49,5.49,0,0,0,4.59-2.57,1.63,1.63,0,0,0,1-1c1.53-1.85,3.57-3.32,4.32-5.76a7.25,7.25,0,0,0,2.4-2.4c1.11-.26,2.25-.47,2.4-1.92.61-.1,1.21-.2.48-1v-1c.56-.39.45-1,.41-1.51a12.2,12.2,0,0,1,1-5.77c1.73-3.82,1.66-4.94-1.41-8.08-.85-2.16-2.8-4.09-1.44-6.72a28.25,28.25,0,0,0,5.73-13.76c.12-.76.41-1.85-.93-2.08-.7-1.86-2.34-.72-3.5-1-2.88-.74-5.84-1.16-8.73-1.87-3.78-.93-7.53-.11-11.29,0l-.48-.48c-.57-1.24-1.7-.93-2.7-1-.8,0-1.66-.07-2,.9a1.47,1.47,0,0,0,.84,2l.48.48c0,.6.44,1,.66,1.5,1,2.19-.26,5-2.27,4.64s-4.13,0-6-1.06c-3.88-2.09-8.17-2-12.4-2.21A2.44,2.44,0,0,0,379.2,181c-2,.73-3.19,2.58-4.8,3.84a1.16,1.16,0,0,0-.47.08c-6.17,4.13-12.61,4.05-19.38,1.61-2.87-1-5.9-2.41-9-.24C340.23,190,334,191,327.83,192c-4.76.78-6.2,1.67-6.17,5.27,0,3.18-1,6.11-1.5,9.15a1.32,1.32,0,0,0-1.4,1.07c-.46,2.4-1.92,2.63-3.88,1.81-.13-.36-.25-.73-.39-1.09-1.18-3.07-3.23-6-1.05-9.47a3.7,3.7,0,0,0,1.92-2.88l.48-.48c2.5-2.16,1.64-5.14-1.92-6.72a2.84,2.84,0,0,0-2.4-2.4c-.36-.52-.62-1.34-1.44-.48h-1q-1.2-2.3-2.4,0a1.09,1.09,0,0,0-1,.85c-.92,2.45-1.89,4.87-2.84,7.31a2.27,2.27,0,0,0-1.44,1.92,14.11,14.11,0,0,0-3.36,3.36c-2.24.64-2.56,2.53-2.9,4.42-.17.91-.62,1.88-1.66,1.56s-1.4-1.32-1-2.53c1.24-3.53,2.41-7.1,3.61-10.65v-.48c1.75-1.27,1.7-2.05-.5-2.91-3.58-1.39-7.54-1.55-11-3.33h-.48a1.27,1.27,0,0,0-.56-1c-3.57-2.45-7.62-4-11.58-5.55-1.23-.49-3.41-1.17-4.66.78-1,.12-1,.89-1,1.62a30.54,30.54,0,0,0,0,4.06c.45,3.29-1.05,5.25-3.89,6.62-1.13.55-2.62.93-2.86,2.58-1.91.88-1.74,2.29-1,3.84v1c-.73.76-.13.86.48,1h.48a.88.88,0,0,0,1,1,3.6,3.6,0,0,1-.22,3.38,6.52,6.52,0,0,0-.32,5.73c.3.9.73,1.76,1,2.68a2.05,2.05,0,0,1-.89,2.29c-.75.52-1.3.13-1.9-.35-3.17-2.5-4.15-2.21-5.51,1.56-.88,2.44.31,6.81,2.11,7.75v.48a1.45,1.45,0,0,0,1,1.44l.48.48c.07,1.1,1.06,1.74,1.37,2.73,1.51,4.85,1.18,6.1-3.56,6-3.06-.08-6.19-.55-9.22.46a13.6,13.6,0,0,1-7.93.63c-1.31-.34-1.92.39-1.73,1.51.28,1.59.59,3.28,2.35,4.07v.48c.17.88.3,1.77,1.44,1.92v.48a9,9,0,0,0,1.3,3c2.3,4.55,4.76,9.07,1.58,14.23a7.5,7.5,0,0,1-5.28,0c-1.25-1.79-3.43-1.86-5.17-2.73-.84-.43-1.49.36-1.86,1.1-.58,1.18.58,5.34,1.75,6.43.43,1.73,2.09,1.51,3.25,1.9,1.84.63,3.24,1.45,3.81,3.47a4,4,0,0,0,2.06,2.79,33,33,0,0,0,5.28,5.28,2.27,2.27,0,0,0,1.92,1.44,2.27,2.27,0,0,0,1.92,1.44c.14,1.17,1.34,2,1,3.33Z" transform="translate(-18.54 -90.6)"/><path class="cls-14" d="M208.74,371.5a5.28,5.28,0,0,1,.45-1.06c.54-.72,1.75-1.4.63-2.33a2.36,2.36,0,0,0-3.24.14,12.49,12.49,0,0,1-9.77,3.3c-1.44-.08-1.9-.59-2-2a50.68,50.68,0,0,0-2.19-12.93c-.5-1.59.51-3.33-.66-4.78v-11a36.37,36.37,0,0,1,1.9-3.93c1.81-2.88,5-3.14,7-.27a17.81,17.81,0,0,1,3,5.56c.27,1,.63,1.51,1.72,1.53,3.67.06,7.35.2,11,.25.91,0,1.37-.73,1.63-1.51s-.18-1.31-.92-1.67c-1.75-.85-3.61-.31-5.41-.42a13.59,13.59,0,0,1-4.8-1.48c-3.74-1.65-5.06-4.33-5.95-7.8-.44-1.69-2.06-2.26-3.57-2.78-1.68-.58-2-1.59-1.61-3.33,1.47-5.92,6-6.89,11.24-6a3.56,3.56,0,0,0,2,.05c-1-3.38-4-4.42-6.73-5.23-3.1-.92-5-2.48-5.08-5.79a72.3,72.3,0,0,1,.17-12.13c.31-2.24,1.69-2.73,3.33-3s3.25-.53,4.86-.92,2.86.05,3,2c0,.62.5,1.25.41,1.82-.62,4.13.95,7.76,2.49,11.4-1,.05-1.26-.73-1.73-1.38-2.12-2.89-1.62-6.2-1.69-9.45-.06-2.79-1.35-3.73-3.93-3a7.15,7.15,0,0,1-1.85.37,3.84,3.84,0,0,0-4.17,4c-.19,3.24-.5,6.52.23,9.75.27,1.15-.19,2.7,1.57,3.11a.88.88,0,0,0,1,1h.48c1.11,2.22,3.58,1.46,5.28,2.4h.48a1.34,1.34,0,0,0,1.44,1.44l.48.48a2.86,2.86,0,0,0,.67,1.48c.48.79,1.15,1.59.3,2.56a2,2,0,0,1-2.58.46,4.59,4.59,0,0,0-1.79-.56c-1.67.11-3.72-1-4.76,1.34h-.48c-2.48.25-2.91,2.25-3.29,4.11s1.15,2.16,2.4,2.71a3.63,3.63,0,0,1,1.94,2c1.31,3.34,2.68,6.52,6.4,8.08,1.22.51,2.25,1.31,3.7,1.33,1.82,0,3.64-.27,5.46.3,1.54.48,2.41,1.32,2,2.95A2.76,2.76,0,0,1,216,345c-.7-.11-1.43,0-2.06-.14-4.17-.65-9.33,1.91-12.08-3.55,0,0-.15,0-.23,0v-.48c-.17-.88-.3-1.77-1.44-1.92v-.48c-.27-1.65-1.51-2.16-2.91-2.37s-2.07.86-2.66,2a13.7,13.7,0,0,0-1.64,5.45c-.68,8.69,2.34,17,3,25.5,0,.45.48.59.89.66.22,1.34,1.31,1,2.07.92a9.88,9.88,0,0,0,6.09-2.84l.48-.48a8.63,8.63,0,0,1,5.76,0c.88,1.41,0,2.59-.48,3.84l-.48.48Z" transform="translate(-18.54 -90.6)"/><path class="cls-14" d="M255.84,617.28a14.34,14.34,0,0,0-5.15-4,2.18,2.18,0,0,1-1.58-2.56c0-.31,0-.64,0-1,.49-3.57-.15-6.7-3.41-8.82,1.83.62,4.18.56,4.36,3.33.24,2.23-.53,4.54.48,6.72,1.63,2.19,3.93,3.49,6.24,4.8.91.94,1.43.3,1.92-.48a1.45,1.45,0,0,0,1-1.44v-2.4a.88.88,0,0,0-1-1v-2.4a.88.88,0,0,0-1-1v-2.4c0-1.6-1.77-1.43-2.4-2.4a1.63,1.63,0,0,0-1-1,1,1,0,0,0-.48-1V600l.53,0c.48.49.87,1.22,1.45,1.42,2.47.87,3.5,2.44,3.51,5.12,0,2.23,1.22,4.34,1.24,6.65a6.64,6.64,0,0,1-1.45,4.11Z" transform="translate(-18.54 -90.6)"/><path class="cls-14" d="M391.68,399.92c-.31,1.3-1.37.84-2.16.87a41.21,41.21,0,0,1-20.2-4.47c-3.75-1.84-7.27-4.19-11.24-5.6a14.11,14.11,0,0,0-3.36-3.36,6.41,6.41,0,0,0-2.88-4.32,1.34,1.34,0,0,0-1.44-1.44c-2-2.42-4.68-1.47-7.09-1.18s-4.52,1-6.83.66a81.34,81.34,0,0,0-9-1c-2.75-.08-5.6-1.94-5.79-3.8a16.19,16.19,0,0,1,.3-6.85c1-3.14,1.95-6.31,2.92-9.46,1.64-1,2.11-2.75,2.88-4.32l.48-.48a2.27,2.27,0,0,0,1.92-1.44,4.85,4.85,0,0,0,2.88-1.92l.48-.48a2.4,2.4,0,0,0,1.4-1.54,46.92,46.92,0,0,1,3.4-8.54,131941395333212.45,131941395333212.45,0,0,0,2.88-3.84l.48-.48a2.84,2.84,0,0,0,2.4-2.4,4.92,4.92,0,0,0,1.92-1.92,2.27,2.27,0,0,0,1.44-1.92l.48-.48a7.77,7.77,0,0,0,2.41-4.51c.47-2,0-2.5-2-2-4,1.12-8.12.84-12.21.71-.68,0-1.32-.13-1.55-.86-.29-.89.42-1.2,1-1.66,2.7-2.16,5.93-3.39,9-4.86s5.11-.73,5.69,1.47c.7,2.67,2.22,3.18,4.32,1.34a14.93,14.93,0,0,0,4.82-7.51,5.51,5.51,0,0,1,3.1-3.93c1.66-.79,3.58-1.52,4.1-3.67a3,3,0,0,0,1.44-1.44c2-1.51,1.93-3.87,2.54-6,.17-.56.34-1.08-.26-1.47s-1.2-.1-1.69.37-1.08,1-1.07,1.78c-2.28,2.23-4.75,4.12-8.2,3.32-4.06-.95-8.16-.84-12.28-.95-4.49-.13-9.06-.24-12.71-3.54-.21-.19-.59-.18-.89-.27-.2-1-.69-2,.59-2.64,1.54-.8,6.7.19,8.05,1.6-2,.34-3.72-.56-5.57-.84-.63-.09-1.61-.42-1.92.36s.71.84,1.14,1.24c2.73,2.57,6.21,3,9.67,3.12,5,.19,10,0,14.95.91,3.46.65,5.28-2.26,7.07-4.61a2.28,2.28,0,0,1,1.91-1.08c2.43-.1,2.94.47,2.47,2.89-1.12,5.78-4.21,10.07-9.68,12.44-.91.39-1,1.05-1.33,1.75-1.29,3.08-2.19,6.4-4.91,8.68-.37.31-.71,1-1,1-3.48-.24-3.34,2.33-3.66,4.57-.52,3.55-2.72,6.16-5.09,8.59a81.21,81.21,0,0,0-7.43,8.53,8.94,8.94,0,0,0-2,4.45c-.17,4.33-3.58,5.77-6.23,8-3.59,3.08-6.09,6.89-6.57,11.76-.2,2.05-1.59,3.72-1.49,5.92.16,3.86,1.77,5.65,5.68,5.95,3.07.25,6.14.38,9.19.91a15.65,15.65,0,0,0,6.32-.7c5.36-1.31,8.68.66,11.17,5.52a15.45,15.45,0,0,0,6.7,6.28c4,2.11,8.09,4.11,12.32,5.82,4.43,1.78,8.88,3.12,13.72,2.82C389,399.77,390.32,399.89,391.68,399.92Zm-56-76.86c2.47,1.73,4.89.11,7.25.47,2.13.33,4-.71,6-1,.51-.08,1.09-.57.88-.92-.74-1.23.28-3-1.19-3.94s-2.56,0-3.7.59C341.84,319.78,338.82,321.4,335.65,323.06Z" transform="translate(-18.54 -90.6)"/><path class="cls-14" d="M392.56,250.56c-1.81,2.31-4.44,3.61-6.76,5.22a24.45,24.45,0,0,0-6.19,5.87c-1.65,2.35-4,3.19-6.18,4.5-3.54,2.14-6.37,4.78-7.31,9-.15.69-.42,1.66-1.41,1.74-3.62.29-6.19,2.74-8.86,4.67-1.92,1.39-3.73.9-5.62,1.13-.43.06-1.08-.17-1.13.5a1.22,1.22,0,0,0,.68.87c1.84.69,3.75,1.17,4,3.69.26,2.91-1.06,5.21-2.67,7.38-.62.83-.9,2.43-2.61,1.88l.47-.88a2.66,2.66,0,0,0,1-1.92c3.88-3.3,3.7-6.58-.46-9.13-.82-.51-2.06-1-1.64-2.27s1.61-1.21,2.66-1.07c2.82.39,4.81-1,6.64-2.89,1.55-.22,2.41-1.77,3.94-2,3-.45,4.51-2.21,4.7-5.19,1.35-1.43,2.75-2.81,4-4.29,1.05-1.22,3-1.3,3.66-2.91,1.3-.33,2.69-.49,3.36-1.92a1.63,1.63,0,0,0,1-1,2.27,2.27,0,0,0,1.44-1.92,14.11,14.11,0,0,0,3.36-3.36,5.63,5.63,0,0,0,3.36-2.4l.48-.48C388.63,252.86,390.07,250.58,392.56,250.56Z" transform="translate(-18.54 -90.6)"/><path class="cls-13" d="M349.92,294.24a2.66,2.66,0,0,1-1,1.92h-2.4l-1.48,0v0c0-.51.19-1.16-.52-1.36s-.8.26-.89.76h-1.44c-1.35-1.41-6.51-2.4-8.05-1.6-1.28.67-.79,1.67-.59,2.64-1.1-.09-1.61-.74-1.36-1.77a2.73,2.73,0,0,1,2.66-2c3.57-.31,7.06.57,10.46,1.41C347,294.69,348.39,295.13,349.92,294.24Z" transform="translate(-18.54 -90.6)"/><path class="cls-13" d="M392.56,250.56c-2.49,0-3.93,2.3-6.16,2.88,1.58-2.94,5-3.61,7.2-5.76l-.48,2.32Z" transform="translate(-18.54 -90.6)"/><path class="cls-14" d="M346.56,296.16H349l-.47.88H347Z" transform="translate(-18.54 -90.6)"/><path class="cls-14" d="M343.68,295.6c.09-.5.29-.94.89-.76s.49.85.52,1.36Z" transform="translate(-18.54 -90.6)"/><path class="cls-14" d="M346.56,296.16l.47.88a1.51,1.51,0,0,1-1.95-.86Z" transform="translate(-18.54 -90.6)"/><path class="cls-13" d="M393.6,247.68c-2.22,2.15-5.62,2.82-7.2,5.76l-.48.48c-1.56.19-2.89.7-3.36,2.4a14.11,14.11,0,0,1-3.36,3.36c-1.24.07-1.49.89-1.44,1.92a1.63,1.63,0,0,1-1,1c-1.4.15-2.77.35-3.36,1.92-3.48.6-7.13,4-7.68,7.2-.52,0-1,.28-1.06.78-.1,2.41-2,2.6-3.67,3.33s-3.34,1.14-3.91,3.09c-2.46.09-4.18,2.6-6.93,2a2.86,2.86,0,0,0-3.49,1.86c-.53,1.73,1.14,2.41,2.19,3.32a1.81,1.81,0,0,0,.85.4c1.44.23,1.47,1.24,1.68,2.43.37,2.11-1.41,3.49-1.5,5.38-1.53.89-2.89.45-4.56,0-3.4-.84-6.89-1.72-10.46-1.41a2.73,2.73,0,0,0-2.66,2c-.25,1,.26,1.68,1.36,1.77,1.63,2.72,4.25,3.76,7.2,4.33,5.17,1,10.47-.08,15.65.93a20.56,20.56,0,0,0,5.43.51c2.79-.2,5.32-2,5.8-4.33,2.09,0,1.47,1.49,1.28,2.56s-.92,1.69-.8,2.72a3,3,0,0,1-1.44,1.44c-1.82.52-2.79,2.35-4.53,2.95-2.13.73-3.07,2.3-3.62,4.35a12.72,12.72,0,0,1-4.42,6.91c-1.21.94-2.3,1.4-2.92-.81-.71-2.53-2.67-3.37-5.29-2.52-4.13,1.32-7.78,3.6-11.45,5.83-.64.39-1.43,1-1.28,1.87a2.58,2.58,0,0,0,1.9,2c1.52.45,3.16,1,4.69.49,2.65-.8,5.4,0,8-.81,1.16-.36,1.91.17,1.25,1.57a8.75,8.75,0,0,0-1.09,3.63l-.48.48c-1.24.07-1.49.89-1.44,1.92a4.92,4.92,0,0,1-1.92,1.92,2.84,2.84,0,0,0-2.4,2.4l-.48.48c-1.24.07-1.49.89-1.44,1.92-1.24.07-1.49.89-1.44,1.92a1.57,1.57,0,0,0-1.47,1c-1.4,2.92-2.92,5.78-3.33,9.06l-.48.48c-1.31.11-2.61.25-2.88,1.92-1-.05-1.85.2-1.92,1.44l-.48.48c-2,.76-2.4,2.56-2.88,4.32-.8,0-1,.68-1.31,1.21-1.9,3-2.09,6.47-2.85,9.71-1.35,5.76.85,9.3,5.73,10.09,3.9.63,7.89.73,11.84,1.07s8-1.91,12-.48a1.34,1.34,0,0,0,1.44,1.44c.48,1.76.9,3.56,2.88,4.32a14.11,14.11,0,0,1,3.36,3.36c0,.85.58,1.22,1.25,1.59,6.29,3.46,12.65,6.84,19.61,8.73a35.76,35.76,0,0,0,13.56.56,31.68,31.68,0,0,1,10.65.41c6.47,1.4,12.93,2.56,19.61,2.21a14.09,14.09,0,0,0,5.59-1.93c5.82-2.91,11.54-2.09,17.35-.16a65.83,65.83,0,0,0,15.56,3.36c4.17.32,7.91-1.75,11-4.5a113.55,113.55,0,0,0,13-14,6.67,6.67,0,0,0,1.49-4.92,25.42,25.42,0,0,1,4.7-18.39,22.83,22.83,0,0,0,4.47-16.26,39.49,39.49,0,0,1,.08-6.7c.17-3.71,2.7-6.23,4.85-8.83a20.68,20.68,0,0,0,2.55-4.82c.45-.94-.29-2.31,1-3,1.9-1,3.59-2.38,5.89-2.47a22.5,22.5,0,0,1,5.89.81,51.94,51.94,0,0,0,7.4,1.62c2,.16,2.34,2.05,2.76,3.25,1,2.72,3.08,4,5.32,5.19a3,3,0,0,1,1.81,1.95c1.54,5.19,3,10.39,4.73,15.53.93,2.85,0,5.21-1.58,7.39a32.41,32.41,0,0,0-5.37,9.49,6.72,6.72,0,0,1-3.58,4.05c-4.15,1.86-6,5.44-7.23,9.32-1.58,4.94-3.78,9.61-5.8,14.36a7.78,7.78,0,0,0-.36,5.87c2.88,6.94.69,12.91-3,18.72-1.57,2.5-2.87,5.15-4.37,7.7a8.49,8.49,0,0,0-.87,6c.88,3.68-.12,7-1.41,10.23-2,5.09-5.45,9.36-8.55,13.79a13.18,13.18,0,0,1-5.06,3.95c-3.11,1.56-5.37,3.4-5.47,7.57-.08,3.22-1.71,6.42-3.18,9.42a42.56,42.56,0,0,0-3.33,11.12c-.16.87-.1,1.83-.82,2.41a62.08,62.08,0,0,0-7.64,7.91,10.19,10.19,0,0,1-4.57,2.94,6.07,6.07,0,0,0-4.41,4.31,3.37,3.37,0,0,1-2.93,2.79c-1.83.2-3.33-.22-4.18-2-1.33-2.78-3.23-3.91-6.32-2.56-1.18.51-2.44-.22-3.59-.78a14.57,14.57,0,0,0-7.56-1.85c-.7.05-1.51-.15-1.69.88-1.94.1-3.9.34-5.76-.48-1.06-1.56-2.27-1-3.36-.13a10.67,10.67,0,0,1-6.14,2.23c-2.6.25-6,.07-7.29,2.76-1.81,3.81-5,5.45-8.33,7.37-5.9,3.4-12.14,2.5-18.3,1.84-3.63-.39-5.74.76-6,4.5a40.67,40.67,0,0,0,0,5.52,3.24,3.24,0,0,1-1.86,3.49,46.34,46.34,0,0,0-7.18,5.07c-2.4,1.94-4.65,4.31-7.44,5.52-4.09,1.77-8.07,3.36-11.11,6.9a107.84,107.84,0,0,0-7,8.43,61.69,61.69,0,0,1-9.2,9.89c-3.79,3.49-8.59,5.23-13.62,6.35A24.35,24.35,0,0,0,309.21,580c-1.82,2.08-3.38,4.4-6,5.69a3.53,3.53,0,0,0-1.73,3.7h-4.32a3.49,3.49,0,0,0-1.81-2.37c-1.87-1.36-4.27-1.45-6.35-2.35a.88.88,0,0,0-1-1v-.48a.88.88,0,0,0-1-1c-.53-.69-1-1.41-1.59-2.06-1.58-1.81-2.57-1.7-4.44,0-.89.82-1.73,1.87-3.09,2.06-.35-.56-.91-.46-1.44-.48-.53-1.5-1.44-1.11-2.4-.48h-.48v-1a4.26,4.26,0,0,1,0-2.4c1.61-2.06,1.36-5.1-.48-5.76.33-1.29-1.09-1.52-1.44-2.4,0-1-.74-1-1.44-1-1.3-.66-.81.47-1,1v1.44c-.64,0-1.44,0-1.39.9.11,1.94-.56,3.95.43,5.82-.18.42-.25,1-.57,1.23-2.26,1.55-2.05,3.43-.87,5.49q-.93.72,0,1.44c0,1-.8,1.52-1.42,2.12a4.3,4.3,0,0,0-1.46,3.64c-1,.19-1.27.64-.48,1.44a8.58,8.58,0,0,0-.48,2.88c-.61.1-1.21.2-.48,1a1.34,1.34,0,0,1-1.44,1.44q-.48-.73-1,0c-2.08-.29-1.25-2.26-1.92-3.36.66-.85.88-1.58-.48-1.92v-1c.52-1.07,1.2-2.17-.48-2.88v-1c.73-.76.13-.86-.48-1l-1-1.44q-1.2-2.3-2.4,0c-.27.67-1,1.08-1,1.92-.25.12-.68.21-.71.38-.12.52.36.51.71.58a8.93,8.93,0,0,1,.48,3.36c-1.48.07-3.13,0-3.68,1.78-.37,1.22-.33,2.52,1.28,3,1.79.18,1.79,2.44,3.36,2.88v1.44c-.38,1.6.91.71,1.44,1,.63,1,2.4.8,2.4,2.4-.51.06-.89.26-.93.84a.9.9,0,0,0,.93,1.08v1.44c-.66,1.3.47.81,1,1v1c-1.28,1.28-.44,2.56,0,3.84v1.44c-.66.07-1.42-.22-1.92.48-2.31-1.31-4.61-2.61-6.24-4.8,1.11-1,1.44-5.62.43-6.56-.19-.18-.6-.11-.91-.16-.18-2.77-2.53-2.71-4.36-3.33h0a10.49,10.49,0,0,0-2.85-5.8c0-.62,0-1.32-.85-1.41-.73-.07-1.45-.08-1.55.93l-.48,1.44c-.39.06-.81.11-.87.61s.38.76.87.83c0,1,.4,1.92,0,2.88h-1.92c-1.05.32-1.49-.92-2.4-1a.88.88,0,0,0-1-1c-1.5-.42-2.66-1.18-2.88-2.88v-1a7.47,7.47,0,0,0,0-5.76v-2.88c1.36-.34,1.14-1.07.48-1.92v-1c.61-.1,1.21-.2.48-1v-1c1-.19,1.27-.64.48-1.44v-1.92c.35-.56.91-.46,1.44-.48a.88.88,0,0,0,1-1c1.14-.15,1.27-1,1.44-1.92,1.9-1.09.53-2.9,1-4.32l.48-1.44c-.09-1.75,1.27-2.48,2.4-3.36a.88.88,0,0,0,1-1l.48-.48c1.7,1,2-.25,2.4-1.44l.48-.48c1.61-.66,1.75-2,1.62-3.47a2,2,0,0,0-2-2c-1.45-.13-2.81,0-3.47,1.62a1.63,1.63,0,0,1-1,1c-1,0-1,.74-1,1.44-1.57.59-1.77,2-1.92,3.36-1.86,1-3.23,3.28-2.88,4.8l-.48.48a1.94,1.94,0,0,0-2.17,1.45c-.48,1.18-1.1,2.3-1.49,3.5-.56,1.74-1.57,1.88-3.08,1.24-2-.84-3.81-2.37-6.22-1.87v-.48c.85-1.64-.13-1.9-1.44-1.92l-1.49,0-1-1c.79-.73.21-.87-.43-1l-.48-1.44c1.33-.23.87-1.29,1-2.09.42-3.69-.67-7.24-1-10.87,1.31-.1,1.61-1,1.39-2a2.53,2.53,0,0,0-2.66-2.26c-1.48,0-1.62-.59-1.12-1.73a7.51,7.51,0,0,0,.72-1.76c.25-1.84,2.2-3.11,1.67-5.18v-1c1-2-.54-2.39-1.87-2.34-2,.06-3.89-.58-5.85-.1-.8.2-1.1-.3-1.45-1.1-.9-2,1-3.35,1-5.1a7.25,7.25,0,0,1,2.4-2.4c2.76-.47,4-2.6,5-4.81s.37-5.14,3.12-6.48c0,0,0-.15,0-.23l.48-.48c1.62-.39,1.79-2,1.78-3,0-2.89,1.88-3.55,4-4.18.83-.24,1.67-.47,2.48-.79a2.86,2.86,0,0,0,1.79-3.07c0-1.3-.24-2.58-1.9-2.85-.93-2-.51-4,0-6s1.68-3.52,1.95-5.48c2.26-1,2-3.67,3.36-5.28a14.11,14.11,0,0,1,3.36-3.36c1.62-.67,1.81-2.06,1.58-3.51-.15-1,.2-1.41,1.07-1.79,2.17-1,4.29-2.07,6.44-3.09a2.35,2.35,0,0,0,1.43-2.05,1.32,1.32,0,0,0-1.4-1.56,8.7,8.7,0,0,1,0-4.8c1.62-.88,2-2.22.77-3.23a3.3,3.3,0,0,0-3.27-.83c-1.29.42-2.39.91-2.3,2.54-2.52-1.8-5.15-3-8.42-2.37a26.14,26.14,0,0,1-4.77.05c-3.26,0-4.89-1.49-5-4.77-.11-2.52-.24-5.41-1.21-7.35-2-3.9-5.26-7.58-9.2-9.17a61.19,61.19,0,0,0-8.86-3.17,4,4,0,0,0,1.94-1.64,2.3,2.3,0,0,0,.07-2.85,1.76,1.76,0,0,0-1.86-.75,1.82,1.82,0,0,0-1.58,2.23c-2-.31-1.57-2-1.8-3.25,2.59.3,4.89-1.05,7.38-1.36a3.59,3.59,0,0,0,3.07-3,3.47,3.47,0,0,0-1.75-3.87,5.38,5.38,0,0,1-2.14-2.73c-.79-2.08-3.17-3.48-4.8-3.22-2.24.36-1.81,2-1.84,3.5a2.33,2.33,0,0,1-2-.85c.4-.58,1.24-1.25,1.13-1.71-.56-2.45.3-4.68.84-7v-.48c1.42-.29,1.63-2.4,3.13-2.33,4.08.2,8.27-1,12.23.89v.48c.15.53.3,1.07.44,1.61.69,2.75,1.88,3.72,3.82,3.12,1.7-.52,2.44-3,1.56-5.09a14.18,14.18,0,0,0-12.05-9.21c-1.17-.14-1.68-.62-1.39-1.65.6-2.13.44-4.36,1.33-6.49.73-1.73,1.93-3.34,2-5.33a1.63,1.63,0,0,1,1-1c1.62-.52,1.54-1.78,1.3-3.07-.53-2.93-3-3.67-5.28-3.85-2.65-.21-3.08-1.49-2.74-3.64a3,3,0,0,1,1.44-1.44c1,.05,1.85-.2,1.92-1.44a2,2,0,0,0,1.92-1.92l.48-.48c1.65-.11,1.57-1.56,1.82-2.59.19-.81-.55-1.19-1.34-1.25a3.42,3.42,0,0,0-5.76,0l-.48.48c-2.76.45-5.18,2.38-8.16,1.92.24-4.09-.92-8-1.64-11.94-1-5.53-1.85-11.07-.77-16.71.73-3.76,2.11-4.47,5.3-2.63a1.19,1.19,0,0,0,.47.08v.48c.17.88.3,1.77,1.44,1.92v.48c.27,2,.82,4.06,3.13,4.22,4,.29,8.09.93,12.16.56a3.53,3.53,0,0,0,3.38-3.19,3.4,3.4,0,0,0-2.06-3.89c-1.71-.85-3.45-.54-5.18-.56a10.52,10.52,0,0,1-9.63-7c-.67-2.09-1.66-3.8-3.82-4.59-1.36-.5-1.33-1.34-1.05-2.66s1.89-1.73,2.11-3.05h.48a9.52,9.52,0,0,1,6.32.11c1.74.51,3.56.21,4-1.45a3.09,3.09,0,0,0-2.13-3.94l-.48-.48a1.34,1.34,0,0,0-1.44-1.44h-.48c-1.15-2.15-3.43-1.79-5.28-2.4h-.48a.88.88,0,0,0-1-1,31.64,31.64,0,0,1-.59-13.24c.38-2,3.43-3.54,6.11-3,2.06.38,1.77,2.25,1.63,3.65a14.61,14.61,0,0,0,2.35,9.08,3.47,3.47,0,0,0,3,2c1.47,0,2.38-1,3.09-2.3,1.65-3.06,1.08-6-.33-8.89-1.66-3.48-3.66-7-.87-10.83h3.84a8.32,8.32,0,0,0,2.34,5.83,4.53,4.53,0,0,0,5.35,1.4c1.49-.54,2.92-.94,2.87-2.91l.48-.48c1.56-.58,3.05-.75,4.43.5a2.39,2.39,0,0,0,1.81.46,7.25,7.25,0,0,1,2.4,2.4c.31,1.58,1.63,1.95,2.88,2.4h.48c.13.28.18.66.4.83a2.41,2.41,0,0,0,3.6-.45c1.12-1.35.15-4.26-1.6-5.18l-.48-.48c-.07-1.24-.89-1.49-1.92-1.44a1.63,1.63,0,0,1-1-1c1.36-1.66,3-1.1,4.47-.37.91.44,1.64,1.26,2.73,1.33v.48a.88.88,0,0,0,1,1v.48a1.34,1.34,0,0,0,1.44,1.44l.48.48c.09,1.29,1,1.56,2,1.41,1.51-.22,2.05-1.42,2.26-2.69.37-2.13-3.13-8.19-5.23-9.28-.07-1.24-.89-1.49-1.92-1.44-.07-1.24-.89-1.49-1.92-1.44a33,33,0,0,1-5.28-5.28c-1-3.38-2.09-6.74-6.39-7.33a16.14,16.14,0,0,1-2.73-.83,10.32,10.32,0,0,0-.7-4.2c-.63-2,.3-2.23,1.92-1.89,1.4.3,2.56,1.34,4.06,1.29,1.51,2.07,3.77,2.07,5.28,0,1.87-.4,2.15-2,2.35-3.44.74-5.35-2.21-9.49-4.78-13.73-.06-.09-.3-.08-.45-.11v-.48c-.17-.88-.3-1.77-1.44-1.92v-.48c-.36-.88-.68-1.78-1.08-2.64-.52-1.1-.29-1.68,1-1.68,6.28,0,12.38-2.3,18.74-1.47a2.82,2.82,0,0,0,3.11-1.76c.92-2.09-.86-6.66-3.05-7.81l-.48-.48c0-.7,0-1.4-1-1.44v-.48c-.48-2-1.07-4-1.4-6a3.84,3.84,0,0,1,1.6-3.78c1.27-.86,1.85.75,2.66,1.38,1.55,1.22,2.94.93,3.92-.81.72-1.28.34-2.47-.11-3.67-.95-2.53-1.56-5,.26-7.48a1.59,1.59,0,0,0-1.17-2.67.88.88,0,0,0-1-1h-.48a1,1,0,0,0-.48-1v-1c.84-1.15.37-2.63,1-3.84,2-.77,3.62-2.18,5.48-3.19a4.08,4.08,0,0,0,2.21-4.1c-.05-2.53,0-5.06,0-7.59a18.41,18.41,0,0,1,8.71,1.84c2.77,1.18,5.17,3.08,8.09,3.92h.48c.05,1,.94,1.17,1.62,1.51,2.47,1.27,5.21,1.7,7.88,2.29a2.19,2.19,0,0,1,2,2.44V192a1.3,1.3,0,0,0-1.1.78c-1.75,3.31-2.13,7.07-3.6,10.49a2.23,2.23,0,0,0,1.66,3,2,2,0,0,0,2.67-1.69c.32-2,1.43-3.63,2.29-5.37a14.11,14.11,0,0,1,3.36-3.36c1.24-.07,1.49-.89,1.44-1.92,1,0,1.31-.72,1.69-1.44a23.35,23.35,0,0,0,2.15-6.72h3.36c.35.56.91.46,1.44.48a2.84,2.84,0,0,0,2.4,2.4c.94,2.15,3.8,3.76,1.92,6.72l-.48.48c-1.67.27-1.81,1.57-1.92,2.88a1.57,1.57,0,0,0-1.35.8c-1.52,2.34.22,8.43,2.79,9.76.62,1.73,1.82,1.6,3.2,1,1.81-.74,1.59-2.51,2.08-3.92,1.13-.15,1.26-1.06,1.44-1.92a43.71,43.71,0,0,0,1-6.56c.1-1.66-.24-4.14,2.25-4.39a61.55,61.55,0,0,0,10.45-2.07c3.35-.94,6.78-1.66,9.74-3.72a6.88,6.88,0,0,1,6.1-1.31c1.44.44,2.86.93,4.29,1.4,5.92,1.95,11.71,2,17.26-1.23.75-.43,1.67-.68,1.67-1.8,2.47-.19,3.87-1.72,4.8-3.84,4.84-.56,9.64-.41,14.17,1.5a29.32,29.32,0,0,0,6,1.31,3.4,3.4,0,0,0,4.15-2.4c.44-1.69.79-3.89-1.75-4.73l-.48-.48c.09-3,2.42-1.55,3.84-1.92l.48.48c.67,1.82,2.3,1.08,3.27.86,3.9-.87,7.58.09,11.29.89a33.07,33.07,0,0,0,9,1.13c.21,4.33-1.48,8.12-3.29,11.89-.61,1.27-1.58,2.42-1.51,3.95-2.26,1.65-1.5,5.19,1.44,6.72a2.66,2.66,0,0,0,.56,2c1.66,1.87,1.29,3.45.11,5.57a8.72,8.72,0,0,0-.67,7.76v1a1,1,0,0,0-.48,1,2.87,2.87,0,0,0-2.4,1.92,7.25,7.25,0,0,1-2.4,2.4c-2,1.5-4,3-4.32,5.76a1.63,1.63,0,0,1-1,1c-1.78,0-3,1.7-4.61,1.69-3.63,0-6.2,2-8.94,3.87-.87.58-2.24.65-2.29,2.12a2.71,2.71,0,0,0-2.88,2.88,3,3,0,0,1-1.44,1.44,2,2,0,0,0-1.36,2.82A9.94,9.94,0,0,1,393.6,247.68ZM249.78,558.24c2.95,0,5.86-2.24,7-5.49.74-2.08,1.27-4.3,3-5.83s2.07-3.21.67-4.87-2.94-1.5-4.75.21a19.44,19.44,0,0,0-5.1,9.27c-.27,1-.4,1.78-1.66,2-1.62.22-1.94,1.47-1.77,2.87S248.41,558.3,249.78,558.24ZM323.88,456c2.39,1.06,2.35-1.7,3.45-2.74,2.41-2.27,1.43-7.94-1.61-9.29-1.47-.66-3.66-.79-4.61.1-1.34,1.26-4.25,2.53-2.14,5.4.1.14,0,.45,0,.67C318.13,453.57,320.08,456,323.88,456Zm80.54.18c2.6,1.07,2.68-1.72,3.75-2.72,1.76-1.64,1.55-4.12.6-6.2-.66-1.46-1.37-3.48-3.84-2.51-.58.23-.73-.46-1.09-.73-2-1.52-3.11.31-4.07,1.47-.72.87-1.63,2.4-.34,3.4,1.56,1.22,2.59-.07,3.39-1.37a.65.65,0,0,1,.16-.17c.47-.38.83-1.12,1.59-.66s1.21.95.89,1.76a4.37,4.37,0,0,0,0,3.24,1.21,1.21,0,0,1-.7,1.58c-.74.41-1.21,0-1.65-.46a14.26,14.26,0,0,1-1-1.31,1.86,1.86,0,0,0-2.55-.55c-.89.42-.73,1.26-.51,2.09C399.7,455.34,400.92,456.07,404.42,456.18Zm-40.58-3q0,3.66,4.42,3.75c1.52,0,4.73-3.56,4.69-5.26a2.56,2.56,0,0,0-2.6-2.79C366.82,448.64,363.83,450.68,363.84,453.14Zm-24.11-7.75c.8-.26,1.49-.76,1.46-1.62a1.53,1.53,0,0,0-1.7-1.58A1.51,1.51,0,0,0,338,444,1.71,1.71,0,0,0,339.73,445.39Z" transform="translate(-18.54 -90.6)"/><path class="cls-13" d="M301.44,589.36a3.53,3.53,0,0,1,1.73-3.7c2.66-1.29,4.22-3.61,6-5.69a24.35,24.35,0,0,1,13.57-7.75c5-1.12,9.83-2.86,13.62-6.35a61.69,61.69,0,0,0,9.2-9.89,107.84,107.84,0,0,1,7-8.43c3-3.54,7-5.13,11.11-6.9,2.79-1.21,5-3.58,7.44-5.52a46.34,46.34,0,0,1,7.18-5.07,3.24,3.24,0,0,0,1.86-3.49,40.67,40.67,0,0,1,0-5.52c.25-3.74,2.36-4.89,6-4.5,6.16.66,12.4,1.56,18.3-1.84,3.35-1.92,6.52-3.56,8.33-7.37,1.29-2.69,4.69-2.51,7.29-2.76a10.67,10.67,0,0,0,6.14-2.23c1.09-.9,2.3-1.43,3.36.13-3,3.95-7.51,4.18-11.86,4.9a4.39,4.39,0,0,0-3.77,2.84c-1,2-3.54,3.5-5.68,4.74-2.3,1.33-4.87,2.2-7.1,3.73a4.94,4.94,0,0,1-2.95.69c-4.38-.06-8.76.13-13.11-.5-2-.29-2.81.53-2.59,2.55.12,1.11-.05,2.24,0,3.36.31,3.93-.53,7.06-5,8.16a6.45,6.45,0,0,0-2.74,2.19c-2.69,3-6.61,4.35-9.36,7.23a4.16,4.16,0,0,1-1.9.87c-3.52,1-6.15,3-8.71,5.7a55.06,55.06,0,0,0-6.18,7.1c-2.24,3.28-5.19,5.85-7.68,8.86a23.57,23.57,0,0,1-14.46,8.24c-5,.9-10.22,2.17-13.65,6.05-1.56,1.77-3,3.9-4.75,5.55C306.2,586.58,304.13,588.49,301.44,589.36Z" transform="translate(-18.54 -90.6)"/><path class="cls-14" d="M257.28,588.48v1c.16,1-.39,2,.48,2.88v1c.07.66-.22,1.42.48,1.92.67,1.1-.16,3.07,1.92,3.36q.48.74,1,0a1.34,1.34,0,0,0,1.44-1.44,1,1,0,0,0,.48-1,8.58,8.58,0,0,1,.48-2.88c.56-.35.46-.91.48-1.44a4.3,4.3,0,0,1,1.46-3.64c.62-.6,1.42-1.1,1.42-2.12q.93-.72,0-1.44c-1.18-2.06-1.39-3.94.87-5.49.32-.22.39-.81.57-1.23h1l.53.5a15.5,15.5,0,0,0-1.49,7.33c0,.8.15,1.7-.66,2.17-2.72,1.59-2.65,4.44-3.14,7a19.06,19.06,0,0,1-1.07,3.36,2.39,2.39,0,0,1-2.78,1.69c-1.22-.24-2.43-.25-3.07-2a27.36,27.36,0,0,1-1.23-6.68,12.51,12.51,0,0,0-.77-3.19c-.14-.35-.52-1.16-1.21-.72-.48.31-1.14.69-.76,1.52a12.34,12.34,0,0,1,.56,1.54c.54,1.89.12,3.39-2,3.75-1.73.3-1.28.93-.57,1.86,1,1.28,2.86,1.92,2.82,3.93l-.53,0c-1.57-.44-1.57-2.7-3.36-2.88-.58-1.89-1.18-3.77,1.81-4.11.22,0,.39-.45.59-.69a8.93,8.93,0,0,0-.48-3.36v-1c-.07-.84.69-1.25,1-1.92h2.4l1,1.44A1,1,0,0,0,257.28,588.48Z" transform="translate(-18.54 -90.6)"/><path class="cls-14" d="M269.81,578.42l-.53-.5v-8.16h2.4c.35.88,1.77,1.11,1.44,2.4v5.76c-.63,1-1,1.87.48,2.4v1a.88.88,0,0,0,1,1h1v.88c-3,.12-4.56-2.08-3.72-5.39a11.07,11.07,0,0,0,.06-5.6c-.13-.51-.35-1.26-1-1.16s-.59.81-.64,1.39C270,574.38,270.72,576.45,269.81,578.42Z" transform="translate(-18.54 -90.6)"/><path class="cls-13" d="M289,584.64c2.08.9,4.48,1,6.35,2.35a3.49,3.49,0,0,1,1.81,2.37c-.62.08-1.37.31-1.83-.14-1.77-1.77-4.24-2.05-6.35-3.09l0-1Z" transform="translate(-18.54 -90.6)"/><path class="cls-14" d="M277.92,582.24c1.36-.19,2.2-1.24,3.09-2.06,1.87-1.7,2.86-1.81,4.44,0,.57.65,1.06,1.37,1.59,2.06v1a1.47,1.47,0,0,0-.29.32c-1.4-.81-1.54-3.22-3.53-3.14-1.73.08-2.73,1.66-4,2.62-.4.3-1.06,1.19-1.77.25Z" transform="translate(-18.54 -90.6)"/><path class="cls-14" d="M289,585.12l0,1c-1.61-.13-1.78-1.47-2.19-2.61a1.47,1.47,0,0,1,.29-.32h1v.48A1.45,1.45,0,0,0,289,585.12Z" transform="translate(-18.54 -90.6)"/><path class="cls-14" d="M277.92,582.24l-.5,1-1.9-.13v-.88a1,1,0,0,1,1-.48C277,581.78,277.57,581.68,277.92,582.24Z" transform="translate(-18.54 -90.6)"/><path class="cls-14" d="M243.36,291.36l.48.48a12.57,12.57,0,0,0,.45,1.35c.5,1,.9,2.17.21,3.17-.81,1.19-2,.49-3.06.28H241c-.31-1.58-1.63-1.95-2.88-2.4a7.25,7.25,0,0,0-2.4-2.4c-.63-1.06-1.81-1.42-2.73-2.11-1.71-1.26-2.85-.78-3.51,1.15l-.48.48c-4.67,3.61-7.41,2.8-9.51-2.85-.23-.61-.39-1.2-1-1.47-2-1.94-2.8-1.94-3.84,0-2.27,1.55-3,3.26-2.09,5.84,1,2.85,2.23,5.59,3.2,8.43.79,2.32-.23,4.33-1.62,6.11-.54.68-1.38,1.37-1.89-.14a5.32,5.32,0,0,0,2.24-6.17c-1.16-3.17-2.79-6.16-3.55-9.48-.68-3,1.43-4.8,3.13-6.45,1.37-1.33,3.42-.69,5.08.31s1.44,3,2.21,4.52c1.6,3.1,3.85,3.42,6.16.75a14.4,14.4,0,0,0,1.33-1.38c1.39-2.17,3.23-1.7,4.9-.66a17.7,17.7,0,0,1,4.84,3.78c1.33,1.66,3.3,2.39,5.13,3.55.73-2.3-.88-3.16-2.2-4.22-1.6-1.28-3.42-2.45-3.34-4.88,0-.52-.17-1.22.66-1.3,3.13-.33,6.15-.1,8.72,2,.28.22.36.69.53,1.05a1.22,1.22,0,0,0-.32.28c-1,0-1.51-.8-2.29-1.16-1.36-.63-2.63-1.46-4.25-1.25-.66.09-1.28.18-1.5.91s.23,1.19.84,1.5a1.63,1.63,0,0,0,1,1A2.27,2.27,0,0,0,243.36,291.36Z" transform="translate(-18.54 -90.6)"/><path class="cls-13" d="M212.16,307.28c.51,1.51,1.35.82,1.89.14,1.39-1.78,2.41-3.79,1.62-6.11-1-2.84-2.23-5.58-3.2-8.43-.89-2.58-.18-4.29,2.09-5.84-2.79,3.86-.79,7.35.87,10.83,1.41,2.93,2,5.83.33,8.89-.71,1.29-1.62,2.27-3.09,2.3a3.47,3.47,0,0,1-3-2,14.61,14.61,0,0,1-2.35-9.08c.14-1.4.43-3.27-1.63-3.65-2.68-.51-5.73,1-6.11,3a31.64,31.64,0,0,0,.59,13.24c-1.76-.41-1.3-2-1.57-3.11-.73-3.23-.42-6.51-.23-9.75a3.84,3.84,0,0,1,4.17-4,7.15,7.15,0,0,0,1.85-.37c2.58-.75,3.87.19,3.93,3,.07,3.25-.43,6.56,1.69,9.45.47.65.74,1.43,1.73,1.38A1.28,1.28,0,0,1,212.16,307.28Z" transform="translate(-18.54 -90.6)"/><path class="cls-14" d="M248.64,291.84v-.48a.88.88,0,0,0-1-1V289a1.22,1.22,0,0,1,.32-.28c1.75.47,2,2.29,3.06,3.37.38.39.66,1.26,1.41.9s.23-1.09,0-1.62c-.63-1.59-1.31-3.16-2-4.73l.07-.07c1.84.68,2.33,2.36,2.94,4,.4,1.05.68,2.06-.16,3.09s-1.87.25-2.81.18l-.48-.48A1.34,1.34,0,0,0,248.64,291.84Z" transform="translate(-18.54 -90.6)"/><path class="cls-14" d="M219.36,517.92l-.48.48c-2.32.44-3.71,1.43-3.45,4.21a5.55,5.55,0,0,1-2,4.38c-1,.91-1.82,2-2.72,2.93a7.25,7.25,0,0,0-2.4,2.4c-2.33,1.36-2.38,3.47-1.92,5.76H205c-1.23-4.86,2-7.65,5.15-10.12,2.79-2.17,4.53-4.45,3.9-8.1-.22-1.3.11-2,1.73-2,2,0,2.79-1.63,3-3.36.6-4.34,1.66-5.5,6-6.16.89-.14,1.78-.2,2.12-1.14s-.37-1.46-.94-2a5.23,5.23,0,0,1-1.3-6.24c1.22-2.79,1-6.32,4.08-8.18-.19-4,3.55-5.26,5.55-7.72.89-1.1,1.5-2,.92-3.59a2,2,0,0,1,1.74-2.79c2.34-.37,4-2.2,6.09-3,1-.39.21-.91-.08-1.44a5.72,5.72,0,0,1,1.1-6.82c-1-.67-1.78.66-2.71.16a2.06,2.06,0,0,1,2.91-1.57c1.85.55,1.28,1.86.93,3.09-2,2.08-2,3.07,0,4.8.65,1.44.2,2.41-1.24,3-2,.87-3.74,2.42-5.94,3-.77.21-1.74.8-1.37,1.65.69,1.65-.24,2.91-.57,4.33a14.11,14.11,0,0,0-3.36,3.36c-2.71.75-2.37,3.44-3.36,5.28-2.74,1.68-2.22,4.85-3.29,7.3a3.07,3.07,0,0,0,1.37,4.22c1.72,4.16,1.43,4.57-2.89,5.88-1.84.56-4,1.2-4.18,3.68A22.62,22.62,0,0,1,219.36,517.92Z" transform="translate(-18.54 -90.6)"/><path class="cls-14" d="M199.68,411.84v.48c-1.63,1.13-1.87,2.81-2,4.63,0,.88.63,2.12-.85,2.57a12.93,12.93,0,0,1,3.2-11,2.36,2.36,0,0,1,1.94-1c3.84,0,7.68.1,11.51,0,2.15-.08,2.47,1.69,3.36,2.88.35.47.32,1.21.58,1.78s.22,1.7,1.15,1.43.73-1.1.38-2c-2.15-5.4-6.17-8.11-11.9-8.39-.94,0-1.68,0-1.68-1.33,0-5.89,1.15-11.4,5.12-16,1.26-1.46.75-2.68-.72-3.21s-2.81-1.22-4.5-.68c-1.51.48-2.29-.25-2.32-2-.05-4.59.74-5.91,5.3-8.05l0,1.5a2.27,2.27,0,0,0-1.92,1.44,3,3,0,0,0-1.44,1.44c-1.54.91-1.05,2.41-.81,3.63s1.46.55,2.25.69c4.57.82,6.77,2.25,5.28,6.24a1.63,1.63,0,0,0-1,1c-3.05,3.73-4.07,8.15-4.3,12.82a1.36,1.36,0,0,0,1.67,1.55c2.49-.27,4.57.85,6.48,2.07a12.71,12.71,0,0,1,5.66,7.18c.36,1.27.21,2.67-1.37,3.15s-1.92-.75-2.31-1.82c-.3-.81-.37-1.78-1.51-1.91v-.48c-.33-1.76-1.7-1.89-3.09-1.91-2.61,0-5.23,0-7.85,0C201.7,408.42,200.15,409.4,199.68,411.84Z" transform="translate(-18.54 -90.6)"/><path class="cls-13" d="M199.68,421.84c0-1.47-.4-3.14,1.84-3.5,1.63-.26,4,1.14,4.8,3.22a5.38,5.38,0,0,0,2.14,2.73,3.47,3.47,0,0,1,1.75,3.87,3.59,3.59,0,0,1-3.07,3c-2.49.31-4.79,1.66-7.38,1.36,0-2.69,2.5-2.49,4.06-3.32a3.87,3.87,0,0,1,1.89,0,2.24,2.24,0,0,0,2.34-1.68c.15-.57-.86-1.45-1.77-1.67-1.08-.25-1.77-.6-1.85-2-.16-2.52-1.73-3.22-3.81-2C200.39,422,200,421.85,199.68,421.84Z" transform="translate(-18.54 -90.6)"/><path class="cls-14" d="M215,559.7c-.66-2-1.63-4,.12-5.74-.66-.75-1-.16-1.44-.09-2.18.35-3.11-.87-2.61-3.07.77-3.4,2.76-6.31,3.82-9.62-1.41-.57-3,.28-4.16-.77V540a13.16,13.16,0,0,0,3,0c.72-.13,1.65-.26,1.79.92v1a15.81,15.81,0,0,0-.94,2.41c-.35,1.64-2,2.88-1.46,4.79a.88.88,0,0,0-1,1v1c-.94.91-.3,1.43.48,1.92,3.82-1.25,3.82-1.25,3.84,1.92-.87.36-1,1.1-1,1.92q-.74.48,0,1v1.44Z" transform="translate(-18.54 -90.6)"/><path class="cls-14" d="M235.68,599.52c.91,0,1.35,1.28,2.4,1,.06.51.26.89.84.93a.9.9,0,0,0,1.08-.93c1.77-.69.84-1.83.48-2.88v-1.44l.93,0,.07.07a20.59,20.59,0,0,1,.41,3c0,3-1.17,3.87-4,2.75a23.27,23.27,0,0,1-4.91-2.59c-4.07-2.82-3.3-6.89-2.58-10.9l.53.5v5.76a.88.88,0,0,0,1,1c.22,1.7,1.38,2.46,2.88,2.88A.88.88,0,0,0,235.68,599.52Z" transform="translate(-18.54 -90.6)"/><path class="cls-14" d="M234.72,577.44c-.53,0-1.09-.08-1.44.48-1.09.18-.63,1.85-1.84,1.92-.26-.72.23-1.3.35-1.94.2-1-.43-.63-.89-.4l0-.54a1.63,1.63,0,0,1,1-1c1.51-.48.75-1,0-1.44a1,1,0,0,1,.48-1c.39.52.79.42,1.14,0a.88.88,0,0,0-.18-1.41c-.2-.9.44-1.38,1-1.92h2.4v1c-1,1.64-.09,3.62-1,5.28A.88.88,0,0,0,234.72,577.44Z" transform="translate(-18.54 -90.6)"/><path class="cls-13" d="M232.32,573.6a1,1,0,0,0-.48,1V576a1.63,1.63,0,0,0-1,1,1,1,0,0,0-1,.48c-1.49-.3-2.94-.39-4.2-1.66a4.51,4.51,0,0,0-4-1.2l-.45-.45,0-.53c2.41-.5,4.22,1,6.22,1.87,1.51.64,2.52.5,3.08-1.24.39-1.2,1-2.32,1.49-3.5a1.94,1.94,0,0,1,2.17-1.45v1c-.52.54-1.16,1-1,1.92A1.45,1.45,0,0,0,232.32,573.6Z" transform="translate(-18.54 -90.6)"/><path class="cls-13" d="M201.56,435.73a1.82,1.82,0,0,1,1.58-2.23,1.76,1.76,0,0,1,1.86.75,2.3,2.3,0,0,1-.07,2.85,4,4,0,0,1-1.94,1.64C201.81,438.07,203.57,436,201.56,435.73Z" transform="translate(-18.54 -90.6)"/><path class="cls-14" d="M231.44,579.84c1.21-.07.75-1.74,1.84-1.92v1.92c-.56.35-.46.91-.48,1.44v1a1,1,0,0,0-.48,1v1c-.7.5-.41,1.26-.48,1.92V589h-1l-.53-.5c0-1.44.09-2.87.13-4.3,1.25-.69,1.66-1.62.83-2.9Z" transform="translate(-18.54 -90.6)"/><path class="cls-14" d="M215,559.7l.53-.5c1.16.16.95,1.06.95,1.81,0,2,0,3.91,0,5.87h-1.36C215.08,564.49,215,562.1,215,559.7Z" transform="translate(-18.54 -90.6)"/><path class="cls-13" d="M196.88,419.52c1.48-.45.81-1.69.85-2.57.08-1.82.32-3.5,2-4.63-.54,2.28-1.4,4.51-.84,7,.11.46-.73,1.13-1.13,1.71C196.58,421,196.8,420.21,196.88,419.52Z" transform="translate(-18.54 -90.6)"/><path class="cls-13" d="M245.28,467c.35-1.23.92-2.54-.93-3.09a2.06,2.06,0,0,0-2.91,1.57h-1c-.09-1.63,1-2.12,2.3-2.54a3.3,3.3,0,0,1,3.27.83C247.28,464.82,246.9,466.16,245.28,467Z" transform="translate(-18.54 -90.6)"/><path class="cls-14" d="M221.71,574.58a4.51,4.51,0,0,1,4,1.2c1.26,1.27,2.71,1.36,4.2,1.66l-.47.88A15.31,15.31,0,0,1,221.71,574.58Z" transform="translate(-18.54 -90.6)"/><path class="cls-14" d="M242.88,595.2a10.49,10.49,0,0,1,2.85,5.8,6.94,6.94,0,0,1-2.53-3.24c-.34-.7-.51-1.75-1.72-1.56l-.07-.07,0-.93Z" transform="translate(-18.54 -90.6)"/><path class="cls-14" d="M205,538.08h1.36c0,2.33,1.84,1.13,2.88,1.44l0,1C206.52,541.42,205.82,541,205,538.08Z" transform="translate(-18.54 -90.6)"/><path class="cls-14" d="M221.28,573.6l0,.53c-1.65-.29-2.18-1.7-2.91-2.91l1.49,0a2.27,2.27,0,0,0,1.44,1.92Z" transform="translate(-18.54 -90.6)"/><path class="cls-14" d="M215.12,566.88h1.36v1l.48,1.44,0,.54C216,569,214.75,568.46,215.12,566.88Z" transform="translate(-18.54 -90.6)"/><path class="cls-13" d="M208.32,373.44l0-1.5.44-.44,1.5,0A2,2,0,0,1,208.32,373.44Z" transform="translate(-18.54 -90.6)"/><path class="cls-14" d="M231.31,581.26c.83,1.28.42,2.21-.83,2.9A4.18,4.18,0,0,1,231.31,581.26Z" transform="translate(-18.54 -90.6)"/><path class="cls-14" d="M209.3,540.53l0-1c.8-.79,1.25-.54,1.44.48v.41Z" transform="translate(-18.54 -90.6)"/><path class="cls-14" d="M229.45,578.32l.47-.88a1,1,0,0,1,1-.48l0,.54C230.59,578.07,230.21,578.52,229.45,578.32Z" transform="translate(-18.54 -90.6)"/><path class="cls-13" d="M216.94,569.82l0-.54c.64.11,1.22.25.43,1Z" transform="translate(-18.54 -90.6)"/><path class="cls-13" d="M374.4,184.8c0,1.12-.92,1.37-1.67,1.8-5.55,3.23-11.34,3.18-17.26,1.23-1.43-.47-2.85-1-4.29-1.4a6.88,6.88,0,0,0-6.1,1.31c-3,2.06-6.39,2.78-9.74,3.72a61.55,61.55,0,0,1-10.45,2.07c-2.49.25-2.15,2.73-2.25,4.39a43.71,43.71,0,0,1-1,6.56c-.18.86-.31,1.77-1.44,1.92.55-3,1.52-6,1.5-9.15,0-3.6,1.41-4.49,6.17-5.27,6.17-1,12.4-2,17.71-5.73,3.11-2.17,6.14-.79,9,.24,6.77,2.44,13.21,2.52,19.38-1.61A1.16,1.16,0,0,1,374.4,184.8Z" transform="translate(-18.54 -90.6)"/><path class="cls-13" d="M256.32,226.56c2.19,1.15,4,5.72,3.05,7.81a2.82,2.82,0,0,1-3.11,1.76c-6.36-.83-12.46,1.49-18.74,1.47-1.29,0-1.52.58-1,1.68.4.86.72,1.76,1.08,2.64-1.76-.79-2.07-2.48-2.35-4.07-.19-1.12.42-1.85,1.73-1.51a13.6,13.6,0,0,0,7.93-.63c3-1,6.16-.54,9.22-.46,4.74.14,5.07-1.11,3.56-6C257.38,228.3,256.39,227.66,256.32,226.56Z" transform="translate(-18.54 -90.6)"/><path class="cls-13" d="M260.64,201.12a1.59,1.59,0,0,1,1.17,2.67c-1.82,2.53-1.21,5-.26,7.48.45,1.2.83,2.39.11,3.67-1,1.74-2.37,2-3.92.81-.81-.63-1.39-2.24-2.66-1.38a3.84,3.84,0,0,0-1.6,3.78c.33,2,.92,4,1.4,6-1.8-.94-3-5.31-2.11-7.75,1.36-3.77,2.34-4.06,5.51-1.56.6.48,1.15.87,1.9.35a2.05,2.05,0,0,0,.89-2.29c-.24-.92-.67-1.78-1-2.68a6.52,6.52,0,0,1,.32-5.73A3.6,3.6,0,0,0,260.64,201.12Z" transform="translate(-18.54 -90.6)"/><path class="cls-13" d="M401.76,176.64c2.54.84,2.19,3,1.75,4.73a3.4,3.4,0,0,1-4.15,2.4,29.32,29.32,0,0,1-6-1.31c-4.53-1.91-9.33-2.06-14.17-1.5a2.44,2.44,0,0,1,2.51-1.45c4.23.23,8.52.12,12.4,2.21,1.91,1,4,.75,6,1.06s3.26-2.45,2.27-4.64C402.2,177.64,401.75,177.24,401.76,176.64Z" transform="translate(-18.54 -90.6)"/><path class="cls-13" d="M429.12,177.6a33.07,33.07,0,0,1-9-1.13c-3.71-.8-7.39-1.76-11.29-.89-1,.22-2.6,1-3.27-.86,3.76-.13,7.51-.95,11.29,0,2.89.71,5.85,1.13,8.73,1.87C426.78,176.88,428.42,175.74,429.12,177.6Z" transform="translate(-18.54 -90.6)"/><path class="cls-13" d="M298.08,199.2c-.86,1.74-2,3.34-2.29,5.37a2,2,0,0,1-2.67,1.69,2.23,2.23,0,0,1-1.66-3c1.47-3.42,1.85-7.18,3.6-10.49a1.3,1.3,0,0,1,1.1-.78c-1.2,3.55-2.37,7.12-3.61,10.65-.43,1.21-.13,2.19,1,2.53s1.49-.65,1.66-1.56C295.52,201.73,295.84,199.84,298.08,199.2Z" transform="translate(-18.54 -90.6)"/><path class="cls-13" d="M267.36,179.52c0,2.53,0,5.06,0,7.59a4.08,4.08,0,0,1-2.21,4.1c-1.86,1-3.48,2.42-5.48,3.19.24-1.65,1.73-2,2.86-2.58,2.84-1.37,4.34-3.33,3.89-6.62a30.54,30.54,0,0,1,0-4.06C266.4,180.41,266.34,179.64,267.36,179.52Z" transform="translate(-18.54 -90.6)"/><path class="cls-13" d="M239,244.8c.15,0,.39,0,.45.11,2.57,4.24,5.52,8.38,4.78,13.73-.2,1.41-.48,3-2.35,3.44,3.18-5.16.72-9.68-1.58-14.23A9,9,0,0,1,239,244.8Z" transform="translate(-18.54 -90.6)"/><path class="cls-13" d="M284.16,185.28c-2.92-.84-5.32-2.74-8.09-3.92a18.41,18.41,0,0,0-8.71-1.84c1.25-2,3.43-1.27,4.66-.78,4,1.59,8,3.1,11.58,5.55A1.27,1.27,0,0,1,284.16,185.28Z" transform="translate(-18.54 -90.6)"/><path class="cls-13" d="M399.36,236.16c.05-1.47,1.42-1.54,2.29-2.12,2.74-1.83,5.31-3.89,8.94-3.87,1.57,0,2.83-1.72,4.61-1.69a5.49,5.49,0,0,1-4.59,2.57c-4.09.14-6.67,3-10,4.56C400.22,235.81,399.79,236,399.36,236.16Z" transform="translate(-18.54 -90.6)"/><path class="cls-13" d="M424.32,193.44c-.07-1.53.9-2.68,1.51-3.95,1.81-3.77,3.5-7.56,3.29-11.89,1.34.23,1.05,1.32.93,2.08A28.25,28.25,0,0,1,424.32,193.44Z" transform="translate(-18.54 -90.6)"/><path class="cls-13" d="M250.56,293.76c.94.07,1.9.93,2.81-.18s.56-2,.16-3.09c-.61-1.6-1.1-3.28-2.94-4,.35-1.31-.85-2.16-1-3.33,2.1,1.09,5.6,7.15,5.23,9.28-.21,1.27-.75,2.47-2.26,2.69C251.52,295.32,250.65,295.05,250.56,293.76Z" transform="translate(-18.54 -90.6)"/><path class="cls-13" d="M425.76,215.52a8.72,8.72,0,0,1,.67-7.76c1.18-2.12,1.55-3.7-.11-5.57a2.66,2.66,0,0,1-.56-2c3.07,3.14,3.14,4.26,1.41,8.08a12.2,12.2,0,0,0-1,5.77C426.21,214.57,426.32,215.13,425.76,215.52Z" transform="translate(-18.54 -90.6)"/><path class="cls-13" d="M296.16,191.52a2.19,2.19,0,0,0-2-2.44c-2.67-.59-5.41-1-7.88-2.29-.68-.34-1.57-.49-1.62-1.51,3.48,1.78,7.44,1.94,11,3.33C297.86,189.47,297.91,190.25,296.16,191.52Z" transform="translate(-18.54 -90.6)"/><path class="cls-13" d="M236.64,262.08c-1.5.05-2.66-1-4.06-1.29-1.62-.34-2.55-.15-1.92,1.89a10.32,10.32,0,0,1,.7,4.2c-1.17-1.09-2.33-5.25-1.75-6.43.37-.74,1-1.53,1.86-1.1C233.21,260.22,235.39,260.29,236.64,262.08Z" transform="translate(-18.54 -90.6)"/><path class="cls-13" d="M231.36,266.88a16.14,16.14,0,0,0,2.73.83c4.3.59,5.34,4,6.39,7.33a4,4,0,0,1-2.06-2.79c-.57-2-2-2.84-3.81-3.47C233.45,268.39,231.79,268.61,231.36,266.88Z" transform="translate(-18.54 -90.6)"/><path class="cls-13" d="M314.88,209.28c-2.57-1.33-4.31-7.42-2.79-9.76a1.57,1.57,0,0,1,1.35-.8c-2.18,3.44-.13,6.4,1.05,9.47C314.63,208.55,314.75,208.92,314.88,209.28Z" transform="translate(-18.54 -90.6)"/><path class="cls-13" d="M306.72,185.76a23.35,23.35,0,0,1-2.15,6.72c-.38.72-.71,1.45-1.69,1.44.95-2.44,1.92-4.86,2.84-7.31A1.09,1.09,0,0,1,306.72,185.76Z" transform="translate(-18.54 -90.6)"/><path class="cls-13" d="M320.16,206.4c-.49,1.41-.27,3.18-2.08,3.92-1.38.56-2.58.69-3.2-1,2,.82,3.42.59,3.88-1.81A1.32,1.32,0,0,1,320.16,206.4Z" transform="translate(-18.54 -90.6)"/><path class="cls-13" d="M315.84,195.36c1.88-3-1-4.57-1.92-6.72C317.48,190.22,318.34,193.2,315.84,195.36Z" transform="translate(-18.54 -90.6)"/><path class="cls-13" d="M393.6,247.68a9.94,9.94,0,0,0,.08-4.38,2,2,0,0,1,1.36-2.82,6.05,6.05,0,0,0-.17,3.7A2.8,2.8,0,0,1,393.6,247.68Z" transform="translate(-18.54 -90.6)"/><path class="cls-13" d="M425.76,200.16c-2.94-1.53-3.7-5.07-1.44-6.72C423,196.07,424.91,198,425.76,200.16Z" transform="translate(-18.54 -90.6)"/><path class="cls-13" d="M416.16,227.52c.3-2.77,2.32-4.26,4.32-5.76C419.73,224.2,417.69,225.67,416.16,227.52Z" transform="translate(-18.54 -90.6)"/><path class="cls-13" d="M405.12,174.24c-1.42.37-3.75-1.09-3.84,1.92a1.47,1.47,0,0,1-.84-2c.32-1,1.18-.92,2-.9C403.42,173.31,404.55,173,405.12,174.24Z" transform="translate(-18.54 -90.6)"/><path class="cls-13" d="M379.2,181c-.93,2.12-2.33,3.65-4.8,3.84C376,183.54,377.16,181.69,379.2,181Z" transform="translate(-18.54 -90.6)"/><path class="cls-13" d="M241.92,262.08c-1.51,2.07-3.77,2.07-5.28,0A7.5,7.5,0,0,0,241.92,262.08Z" transform="translate(-18.54 -90.6)"/><path class="cls-13" d="M259.68,194.4c-.59,1.21-.12,2.69-1,3.84C257.94,196.69,257.77,195.28,259.68,194.4Z" transform="translate(-18.54 -90.6)"/><path class="cls-13" d="M396.48,239a2.71,2.71,0,0,1,2.88-2.88A10.39,10.39,0,0,1,396.48,239Z" transform="translate(-18.54 -90.6)"/><path class="cls-13" d="M313.44,198.72c.11-1.31.25-2.61,1.92-2.88A3.7,3.7,0,0,1,313.44,198.72Z" transform="translate(-18.54 -90.6)"/><path class="cls-13" d="M313.92,188.64a2.84,2.84,0,0,1-2.4-2.4A2.84,2.84,0,0,1,313.92,188.64Z" transform="translate(-18.54 -90.6)"/><path class="cls-13" d="M422.88,219.36a2.87,2.87,0,0,1,2.4-1.92C425.13,218.89,424,219.1,422.88,219.36Z" transform="translate(-18.54 -90.6)"/><path class="cls-13" d="M309.12,185.76h-2.4Q307.92,183.46,309.12,185.76Z" transform="translate(-18.54 -90.6)"/><path class="cls-13" d="M302.88,193.92c.05,1-.2,1.85-1.44,1.92A2.27,2.27,0,0,1,302.88,193.92Z" transform="translate(-18.54 -90.6)"/><path class="cls-13" d="M247.68,281.76c1-.05,1.85.2,1.92,1.44A2.27,2.27,0,0,1,247.68,281.76Z" transform="translate(-18.54 -90.6)"/><path class="cls-13" d="M245.76,280.32c1-.05,1.85.2,1.92,1.44A2.27,2.27,0,0,1,245.76,280.32Z" transform="translate(-18.54 -90.6)"/><path class="cls-13" d="M237.6,242.4c1.14.15,1.27,1,1.44,1.92C237.9,244.17,237.77,243.28,237.6,242.4Z" transform="translate(-18.54 -90.6)"/><path class="cls-13" d="M254.88,224.64c1,0,1,.74,1,1.44A1.45,1.45,0,0,1,254.88,224.64Z" transform="translate(-18.54 -90.6)"/><path class="cls-13" d="M311.52,186.24c-.53,0-1.09.08-1.44-.48C310.9,184.9,311.16,185.72,311.52,186.24Z" transform="translate(-18.54 -90.6)"/><path class="cls-13" d="M259.68,200.16a.88.88,0,0,1,1,1A.88.88,0,0,1,259.68,200.16Z" transform="translate(-18.54 -90.6)"/><path class="cls-13" d="M425.28,217.44a1,1,0,0,1,.48-1C426.49,217.24,425.89,217.34,425.28,217.44Z" transform="translate(-18.54 -90.6)"/><path class="cls-13" d="M258.72,199.2a1,1,0,0,1,.48,1C258.59,200.06,258,200,258.72,199.2Z" transform="translate(-18.54 -90.6)"/><path class="cls-13" d="M200.64,321.12c-.22,1.32-1.81,1.62-2.11,3.05s-.31,2.16,1.05,2.66c2.16.79,3.15,2.5,3.82,4.59a10.52,10.52,0,0,0,9.63,7c1.73,0,3.47-.29,5.18.56a3.4,3.4,0,0,1,2.06,3.89,3.53,3.53,0,0,1-3.38,3.19c-4.07.37-8.12-.27-12.16-.56-2.31-.16-2.86-2.23-3.13-4.22.08,0,.21,0,.23,0,2.75,5.46,7.91,2.9,12.08,3.55.63.1,1.36,0,2.06.14a2.76,2.76,0,0,0,3.31-2.37c.38-1.63-.49-2.47-2-2.95-1.82-.57-3.64-.28-5.46-.3-1.45,0-2.48-.82-3.7-1.33-3.72-1.56-5.09-4.74-6.4-8.08a3.63,3.63,0,0,0-1.94-2c-1.25-.55-2.76-.93-2.4-2.71S198.16,321.37,200.64,321.12Z" transform="translate(-18.54 -90.6)"/><path class="cls-13" d="M200.16,338.4a1.19,1.19,0,0,1-.47-.08c-3.19-1.84-4.57-1.13-5.3,2.63-1.08,5.64-.24,11.18.77,16.71.72,4,1.88,7.85,1.64,11.94-.41-.07-.85-.21-.89-.66-.62-8.54-3.64-16.81-3-25.5a13.7,13.7,0,0,1,1.64-5.45c.59-1.1,1.18-2.19,2.66-2S199.89,336.75,200.16,338.4Z" transform="translate(-18.54 -90.6)"/><path class="cls-13" d="M209.28,315.84a3.09,3.09,0,0,1,2.13,3.94c-.41,1.66-2.23,2-4,1.45a9.52,9.52,0,0,0-6.32-.11c1-2.36,3.09-1.23,4.76-1.34a4.59,4.59,0,0,1,1.79.56,2,2,0,0,0,2.58-.46c.85-1,.18-1.77-.3-2.56A2.86,2.86,0,0,1,209.28,315.84Z" transform="translate(-18.54 -90.6)"/><path class="cls-13" d="M196.8,369.6c3,.46,5.4-1.47,8.16-1.92a9.88,9.88,0,0,1-6.09,2.84C198.11,370.64,197,370.94,196.8,369.6Z" transform="translate(-18.54 -90.6)"/><path class="cls-13" d="M205.44,367.2a3.42,3.42,0,0,1,5.76,0A8.63,8.63,0,0,0,205.44,367.2Z" transform="translate(-18.54 -90.6)"/><path class="cls-13" d="M201.6,311.52c1.85.61,4.13.25,5.28,2.4C205.18,313,202.71,313.74,201.6,311.52Z" transform="translate(-18.54 -90.6)"/><path class="cls-13" d="M211.2,367.2c.79.06,1.53.44,1.34,1.25-.25,1-.17,2.48-1.82,2.59C211.15,369.79,212.08,368.61,211.2,367.2Z" transform="translate(-18.54 -90.6)"/><path class="cls-13" d="M201.6,340.8c-1.14-.15-1.27-1-1.44-1.92C201.3,339,201.43,339.92,201.6,340.8Z" transform="translate(-18.54 -90.6)"/><path class="cls-13" d="M207.36,313.92a1.34,1.34,0,0,1,1.44,1.44A1.34,1.34,0,0,1,207.36,313.92Z" transform="translate(-18.54 -90.6)"/><path class="cls-13" d="M200.16,310.56a.88.88,0,0,1,1,1A.88.88,0,0,1,200.16,310.56Z" transform="translate(-18.54 -90.6)"/><path class="cls-13" d="M250.08,604.32c.31,0,.72,0,.91.16,1,.94.68,5.52-.43,6.56C249.55,608.86,250.32,606.55,250.08,604.32Z" transform="translate(-18.54 -90.6)"/><path class="cls-13" d="M258.72,613.92c-.44-1.28-1.28-2.56,0-3.84v.48a.88.88,0,0,0,1,1v2.4Z" transform="translate(-18.54 -90.6)"/><path class="cls-13" d="M257.76,606.72a.9.9,0,0,1-.93-1.08c0-.58.42-.78.93-.84Z" transform="translate(-18.54 -90.6)"/><path class="cls-13" d="M255.36,602.4c-.53-.25-1.82.64-1.44-1h.48A1.63,1.63,0,0,1,255.36,602.4Z" transform="translate(-18.54 -90.6)"/><path class="cls-14" d="M256.8,615.84c.5-.7,1.26-.41,1.92-.48C258.23,616.14,257.71,616.78,256.8,615.84Z" transform="translate(-18.54 -90.6)"/><path class="cls-13" d="M258.72,609.12c-.49-.15-1.62.34-1-1h1Z" transform="translate(-18.54 -90.6)"/><path class="cls-14" d="M258.72,613.92h1a1.45,1.45,0,0,1-1,1.44Z" transform="translate(-18.54 -90.6)"/><path class="cls-14" d="M259.68,611.52a.88.88,0,0,1-1-1A.88.88,0,0,1,259.68,611.52Z" transform="translate(-18.54 -90.6)"/><path class="cls-14" d="M258.72,608.16h-1v-1A.88.88,0,0,1,258.72,608.16Z" transform="translate(-18.54 -90.6)"/><path class="cls-14" d="M254.4,601.44h-.48v-1A1,1,0,0,1,254.4,601.44Z" transform="translate(-18.54 -90.6)"/><path class="cls-13" d="M348,330.24a8.75,8.75,0,0,1,1.09-3.63c.66-1.4-.09-1.93-1.25-1.57-2.64.83-5.39,0-8,.81-1.53.47-3.17,0-4.69-.49a2.58,2.58,0,0,1-1.9-2c-.15-.91.64-1.48,1.28-1.87,3.67-2.23,7.32-4.51,11.45-5.83,2.62-.85,4.58,0,5.29,2.52.62,2.21,1.71,1.75,2.92.81a12.72,12.72,0,0,0,4.42-6.91c.55-2.05,1.49-3.62,3.62-4.35,1.74-.6,2.71-2.43,4.53-2.95-.52,2.15-2.44,2.88-4.1,3.67a5.51,5.51,0,0,0-3.1,3.93,14.93,14.93,0,0,1-4.82,7.51c-2.1,1.84-3.62,1.33-4.32-1.34-.58-2.2-2.67-2.92-5.69-1.47s-6.29,2.7-9,4.86c-.58.46-1.29.77-1,1.66.23.73.87.84,1.55.86,4.09.13,8.19.41,12.21-.71,2-.54,2.42-.07,2,2A7.77,7.77,0,0,1,348,330.24Z" transform="translate(-18.54 -90.6)"/><path class="cls-13" d="M350.4,381.6c-4.07-1.43-8,.82-12,.48s-7.94-.44-11.84-1.07c-4.88-.79-7.08-4.33-5.73-10.09.76-3.24.95-6.76,2.85-9.71.34-.53.51-1.19,1.31-1.21-1,3.15-1.9,6.32-2.92,9.46a16.19,16.19,0,0,0-.3,6.85c.19,1.86,3,3.72,5.79,3.8a81.34,81.34,0,0,1,9,1c2.31.33,4.55-.38,6.83-.66S348.38,379.18,350.4,381.6Z" transform="translate(-18.54 -90.6)"/><path class="cls-13" d="M367.68,298.08c-.48,2.29-3,4.13-5.8,4.33a20.56,20.56,0,0,1-5.43-.51c-5.18-1-10.48.08-15.65-.93-2.95-.57-5.57-1.61-7.2-4.33.3.09.68.08.89.27,3.65,3.3,8.22,3.41,12.71,3.54,4.12.11,8.22,0,12.28.95C362.93,302.2,365.4,300.31,367.68,298.08Z" transform="translate(-18.54 -90.6)"/><path class="cls-13" d="M368.16,303.36c-.12-1,.63-1.8.8-2.72s.81-2.55-1.28-2.56c0-.81.56-1.28,1.07-1.78s1-.8,1.69-.37.43.91.26,1.47C370.09,299.49,370.13,301.85,368.16,303.36Z" transform="translate(-18.54 -90.6)"/><path class="cls-13" d="M333.6,351.36c.41-3.28,1.93-6.14,3.33-9.06a1.57,1.57,0,0,1,1.47-1,46.92,46.92,0,0,0-3.4,8.54A2.4,2.4,0,0,1,333.6,351.36Z" transform="translate(-18.54 -90.6)"/><path class="cls-13" d="M354.72,387.36c-2-.76-2.4-2.56-2.88-4.32A6.41,6.41,0,0,1,354.72,387.36Z" transform="translate(-18.54 -90.6)"/><path class="cls-13" d="M325,360c.48-1.76.9-3.56,2.88-4.32C327.07,357.25,326.6,359,325,360Z" transform="translate(-18.54 -90.6)"/><path class="cls-13" d="M341.76,337a2.84,2.84,0,0,1,2.4-2.4A2.84,2.84,0,0,1,341.76,337Z" transform="translate(-18.54 -90.6)"/><path class="cls-13" d="M330.24,353.76c.27-1.67,1.57-1.81,2.88-1.92A4.85,4.85,0,0,1,330.24,353.76Z" transform="translate(-18.54 -90.6)"/><path class="cls-13" d="M338.4,341.28c0-1,.2-1.85,1.44-1.92A2.27,2.27,0,0,1,338.4,341.28Z" transform="translate(-18.54 -90.6)"/><path class="cls-13" d="M339.84,339.36c0-1,.2-1.85,1.44-1.92A2.27,2.27,0,0,1,339.84,339.36Z" transform="translate(-18.54 -90.6)"/><path class="cls-13" d="M328.32,355.2c.07-1.24.89-1.49,1.92-1.44A2.27,2.27,0,0,1,328.32,355.2Z" transform="translate(-18.54 -90.6)"/><path class="cls-13" d="M346.08,332.64c-.05-1,.2-1.85,1.44-1.92A2.27,2.27,0,0,1,346.08,332.64Z" transform="translate(-18.54 -90.6)"/><path class="cls-13" d="M351.84,383a1.34,1.34,0,0,1-1.44-1.44A1.34,1.34,0,0,1,351.84,383Z" transform="translate(-18.54 -90.6)"/><path class="cls-13" d="M349.92,294.24c.09-1.89,1.87-3.27,1.5-5.38-.21-1.19-.24-2.2-1.68-2.43a1.81,1.81,0,0,1-.85-.4c-1.05-.91-2.72-1.59-2.19-3.32a2.86,2.86,0,0,1,3.49-1.86c2.75.63,4.47-1.88,6.93-2-1.83,1.84-3.82,3.28-6.64,2.89-1.05-.14-2.27-.08-2.66,1.07s.82,1.76,1.64,2.27C353.62,287.66,353.8,290.94,349.92,294.24Z" transform="translate(-18.54 -90.6)"/><path class="cls-13" d="M357.12,278.88c.57-1.95,2.4-2.41,3.91-3.09s3.57-.92,3.67-3.33c0-.5.54-.74,1.06-.78-.19,3-1.72,4.74-4.7,5.19C359.53,277.11,358.67,278.66,357.12,278.88Z" transform="translate(-18.54 -90.6)"/><path class="cls-13" d="M365.76,271.68c.55-3.17,4.2-6.6,7.68-7.2-.7,1.61-2.61,1.69-3.66,2.91C368.51,268.87,367.11,270.25,365.76,271.68Z" transform="translate(-18.54 -90.6)"/><path class="cls-13" d="M382.56,256.32c.47-1.7,1.8-2.21,3.36-2.4A5.63,5.63,0,0,1,382.56,256.32Z" transform="translate(-18.54 -90.6)"/><path class="cls-13" d="M373.44,264.48c.59-1.57,2-1.77,3.36-1.92C376.13,264,374.74,264.15,373.44,264.48Z" transform="translate(-18.54 -90.6)"/><path class="cls-13" d="M377.76,261.6c-.05-1,.2-1.85,1.44-1.92A2.27,2.27,0,0,1,377.76,261.6Z" transform="translate(-18.54 -90.6)"/><path class="cls-13" d="M249.78,558.24c-1.37.06-2.37-.41-2.55-1.89s.15-2.65,1.77-2.87c1.26-.17,1.39-1,1.66-2a19.44,19.44,0,0,1,5.1-9.27c1.81-1.71,3.46-1.75,4.75-.21s1.15,3.3-.67,4.87-2.31,3.75-3,5.83C255.64,556,252.73,558.28,249.78,558.24Z" transform="translate(-18.54 -90.6)"/><path class="cls-13" d="M323.88,456c-3.8,0-5.75-2.43-4.94-5.86.05-.22.13-.53,0-.67-2.11-2.87.8-4.14,2.14-5.4.95-.89,3.14-.76,4.61-.1,3,1.35,4,7,1.61,9.29C326.23,454.3,326.27,457.06,323.88,456Z" transform="translate(-18.54 -90.6)"/><path class="cls-13" d="M404.42,456.18c-3.5-.11-4.72-.84-5.34-3.14-.22-.83-.38-1.67.51-2.09a1.86,1.86,0,0,1,2.55.55,14.26,14.26,0,0,0,1,1.31c.44.5.91.87,1.65.46a1.21,1.21,0,0,0,.7-1.58,4.37,4.37,0,0,1,0-3.24c.32-.81-.26-1.38-.89-1.76s-1.12.28-1.59.66a.65.65,0,0,0-.16.17c-.8,1.3-1.83,2.59-3.39,1.37-1.29-1-.38-2.53.34-3.4,1-1.16,2-3,4.07-1.47.36.27.51,1,1.09.73,2.47-1,3.18,1.05,3.84,2.51,1,2.08,1.16,4.56-.6,6.2C407.1,454.46,407,457.25,404.42,456.18Z" transform="translate(-18.54 -90.6)"/><path class="cls-13" d="M363.84,453.14c0-2.46,3-4.5,6.51-4.3a2.56,2.56,0,0,1,2.6,2.79c0,1.7-3.17,5.29-4.69,5.26Q363.85,456.8,363.84,453.14Z" transform="translate(-18.54 -90.6)"/><path class="cls-13" d="M215,410.88c1.14.13,1.21,1.1,1.51,1.91.39,1.07.83,2.27,2.31,1.82s1.73-1.88,1.37-3.15a12.71,12.71,0,0,0-5.66-7.18c-1.91-1.22-4-2.34-6.48-2.07a1.36,1.36,0,0,1-1.67-1.55c.23-4.67,1.25-9.09,4.3-12.82,0,2-1.24,3.6-2,5.33-.89,2.13-.73,4.36-1.33,6.49-.29,1,.22,1.51,1.39,1.65a14.18,14.18,0,0,1,12.05,9.21c.88,2.1.14,4.57-1.56,5.09-1.94.6-3.13-.37-3.82-3.12C215.34,412,215.19,411.41,215,410.88Z" transform="translate(-18.54 -90.6)"/><path class="cls-14" d="M245.28,562.08l-.48.48-1.44.48a2,2,0,0,0-2.43-.33A25.94,25.94,0,0,0,237.6,565v-1a5.2,5.2,0,0,0,1.92-3.36,1.45,1.45,0,0,0,1-1.44,1.63,1.63,0,0,0,1-1,7.3,7.3,0,0,0,1.34-.46,2.12,2.12,0,0,1,3,3A6.62,6.62,0,0,0,245.28,562.08Z" transform="translate(-18.54 -90.6)"/><path class="cls-14" d="M237.6,565a25.94,25.94,0,0,1,3.33-2.25,2,2,0,0,1,2.43.33l-1,1-.48.48a.88.88,0,0,0-1,1c-1.13.88-2.49,1.61-2.4,3.36q-1.6-.16-1.44,1.44h-2.88v-1l.48-.48C236.31,568,236.35,566,237.6,565Z" transform="translate(-18.54 -90.6)"/><path class="cls-13" d="M212.16,551v-1a.88.88,0,0,0,1-1c-.56-1.91,1.11-3.15,1.46-4.79a15.81,15.81,0,0,1,.94-2.41h1c.53,2.07-1.42,3.34-1.67,5.18a7.51,7.51,0,0,1-.72,1.76c-.5,1.14-.36,1.77,1.12,1.73a2.53,2.53,0,0,1,2.66,2.26c.22,1-.08,1.93-1.39,2,0-3.17,0-3.17-3.84-1.92C212.57,552.3,212.86,551.54,212.16,551Z" transform="translate(-18.54 -90.6)"/><path class="cls-13" d="M210.72,540c-.19-1-.64-1.27-1.44-.48-1-.31-2.84.89-2.88-1.44-.46-2.29-.41-4.4,1.92-5.76,0,1.75-1.91,3.07-1,5.1.35.8.65,1.3,1.45,1.1,2-.48,3.89.16,5.85.1,1.33,0,2.83.31,1.87,2.34h-1c-.14-1.18-1.07-1.05-1.79-.92A13.16,13.16,0,0,1,210.72,540Z" transform="translate(-18.54 -90.6)"/><path class="cls-13" d="M219.36,517.92a22.62,22.62,0,0,0,1.09-4.36c.14-2.48,2.34-3.12,4.18-3.68,4.32-1.31,4.61-1.72,2.89-5.88,1.66.27,1.85,1.55,1.9,2.85a2.86,2.86,0,0,1-1.79,3.07c-.81.32-1.65.55-2.48.79-2.13.63-4,1.29-4,4.18C221.15,515.94,221,517.53,219.36,517.92Z" transform="translate(-18.54 -90.6)"/><path class="cls-13" d="M236.16,483.84c.33-1.42,1.26-2.68.57-4.33-.37-.85.6-1.44,1.37-1.65,2.2-.58,3.9-2.13,5.94-3,1.44-.61,1.89-1.58,1.24-3a1.32,1.32,0,0,1,1.4,1.56,2.35,2.35,0,0,1-1.43,2.05c-2.15,1-4.27,2.11-6.44,3.09-.87.38-1.22.78-1.07,1.79C238,481.78,237.78,483.17,236.16,483.84Z" transform="translate(-18.54 -90.6)"/><path class="cls-13" d="M211.68,386.88c1.49-4-.71-5.42-5.28-6.24-.79-.14-2,.46-2.25-.69s-.73-2.72.81-3.63c-.34,2.15.09,3.43,2.74,3.64,2.32.18,4.75.92,5.28,3.85C213.22,385.1,213.3,386.36,211.68,386.88Z" transform="translate(-18.54 -90.6)"/><path class="cls-13" d="M199.68,411.84c.47-2.44,2-3.42,4.42-3.37,2.62,0,5.24,0,7.85,0,1.39,0,2.76.15,3.09,1.91-4-1.86-8.15-.69-12.23-.89C201.31,409.44,201.1,411.55,199.68,411.84Z" transform="translate(-18.54 -90.6)"/><path class="cls-13" d="M218.4,287c.66.27.82.86,1,1.47,2.1,5.65,4.84,6.46,9.51,2.85,0,2-1.38,2.37-2.87,2.91a4.53,4.53,0,0,1-5.35-1.4A8.32,8.32,0,0,1,218.4,287Z" transform="translate(-18.54 -90.6)"/><path class="cls-13" d="M210.72,529.92c.9-1,1.75-2,2.72-2.93a5.55,5.55,0,0,0,2-4.38c-.26-2.78,1.13-3.77,3.45-4.21,0,.08,0,.21,0,.23-2.75,1.34-2.09,4.31-3.12,6.48S213.48,529.45,210.72,529.92Z" transform="translate(-18.54 -90.6)"/><path class="cls-13" d="M216.48,567.84v-1c0-2,0-3.91,0-5.87,0-.75.21-1.65-.95-1.81v-1.44q.73-.48,0-1c0-.82.09-1.56,1-1.92.29,3.63,1.38,7.18,1,10.87C217.35,566.55,217.81,567.61,216.48,567.84Z" transform="translate(-18.54 -90.6)"/><path class="cls-13" d="M227.52,504a3.07,3.07,0,0,1-1.37-4.22c1.07-2.45.55-5.62,3.29-7.3-.27,2-1.51,3.55-1.95,5.48S226.59,502,227.52,504Z" transform="translate(-18.54 -90.6)"/><path class="cls-13" d="M247.68,289v1c-1.09-.07-1.82-.89-2.73-1.33-1.52-.73-3.11-1.29-4.47.37-.61-.31-1.06-.74-.84-1.5s.84-.82,1.5-.91c1.62-.21,2.89.62,4.25,1.25C246.17,288.16,246.72,289,247.68,289Z" transform="translate(-18.54 -90.6)"/><path class="cls-13" d="M269.28,571.2v6.72h-1c-1-1.87-.32-3.88-.43-5.82C267.84,571.21,268.64,571.23,269.28,571.2Z" transform="translate(-18.54 -90.6)"/><path class="cls-13" d="M241.44,296.64c1.06.21,2.25.91,3.06-.28.69-1,.29-2.13-.21-3.17a12.57,12.57,0,0,1-.45-1.35c1.75.92,2.72,3.83,1.6,5.18a2.41,2.41,0,0,1-3.6.45C241.62,297.3,241.57,296.92,241.44,296.64Z" transform="translate(-18.54 -90.6)"/><path class="cls-13" d="M245.28,562.08a6.62,6.62,0,0,1,.46-1.34,2.12,2.12,0,0,0-3-3,7.3,7.3,0,0,1-1.34.46c.66-1.61,2-1.75,3.47-1.62a2,2,0,0,1,2,2C247,560.06,246.89,561.42,245.28,562.08Z" transform="translate(-18.54 -90.6)"/><path class="cls-13" d="M339.73,445.39A1.71,1.71,0,0,1,338,444a1.51,1.51,0,0,1,1.45-1.79,1.53,1.53,0,0,1,1.7,1.58C341.22,444.63,340.53,445.13,339.73,445.39Z" transform="translate(-18.54 -90.6)"/><path class="cls-13" d="M230.88,589h1a7.47,7.47,0,0,1,0,5.76h-1Z" transform="translate(-18.54 -90.6)"/><path class="cls-13" d="M273.12,577.92v-5.76c1.84.66,2.09,3.7.48,5.76Z" transform="translate(-18.54 -90.6)"/><path class="cls-13" d="M229.44,290.88c.66-1.93,1.8-2.41,3.51-1.15.92.69,2.1,1,2.73,2.11a2.39,2.39,0,0,1-1.81-.46C232.49,290.13,231,290.3,229.44,290.88Z" transform="translate(-18.54 -90.6)"/><path class="cls-13" d="M253,592.32c-.2.24-.37.66-.59.69-3,.34-2.39,2.22-1.81,4.11-1.61-.5-1.65-1.8-1.28-3C249.83,592.31,251.48,592.39,253,592.32Z" transform="translate(-18.54 -90.6)"/><path class="cls-13" d="M237.6,565c-1.25,1.07-1.29,3-2.88,3.84-.35-1.52,1-3.81,2.88-4.8Z" transform="translate(-18.54 -90.6)"/><path class="cls-13" d="M229.44,492.48c1-1.84.65-4.53,3.36-5.28C231.44,488.81,231.7,491.44,229.44,492.48Z" transform="translate(-18.54 -90.6)"/><path class="cls-14" d="M235.68,576.48c.87-1.66,0-3.64,1-5.28.92,1,.29,2.24.48,3.36C237,575.44,236.82,576.33,235.68,576.48Z" transform="translate(-18.54 -90.6)"/><path class="cls-13" d="M237.12,574.56c-.19-1.12.44-2.35-.48-3.36v-1h1.44C237.65,571.66,239,573.47,237.12,574.56Z" transform="translate(-18.54 -90.6)"/><path class="cls-13" d="M214.56,287c1-1.94,1.83-1.94,3.84,0Z" transform="translate(-18.54 -90.6)"/><path class="cls-13" d="M245.28,471.84c-2-1.73-2-2.72,0-4.8A8.7,8.7,0,0,0,245.28,471.84Z" transform="translate(-18.54 -90.6)"/><path class="cls-13" d="M238.08,294.24c1.25.45,2.57.82,2.88,2.4C239.71,296.19,238.39,295.82,238.08,294.24Z" transform="translate(-18.54 -90.6)"/><path class="cls-13" d="M242.88,595.2h-1.44a1,1,0,0,0-1-.48c.1-1,.82-1,1.55-.93C242.92,593.88,242.85,594.58,242.88,595.2Z" transform="translate(-18.54 -90.6)"/><path class="cls-13" d="M239.52,560.64A5.2,5.2,0,0,1,237.6,564C237.75,562.6,238,561.23,239.52,560.64Z" transform="translate(-18.54 -90.6)"/><path class="cls-13" d="M242.4,564l1-1,1.44-.48C244.43,563.75,244.1,565,242.4,564Z" transform="translate(-18.54 -90.6)"/><path class="cls-13" d="M257.76,592.32c-.87-.84-.32-1.92-.48-2.88C259,590.15,258.28,591.25,257.76,592.32Z" transform="translate(-18.54 -90.6)"/><path class="cls-13" d="M221.28,573.12a2.27,2.27,0,0,1-1.44-1.92C221.15,571.22,222.13,571.48,221.28,573.12Z" transform="translate(-18.54 -90.6)"/><path class="cls-13" d="M276.48,581.76a1,1,0,0,0-1,.48h-1a1,1,0,0,0-.48-1C275,580.65,276,580.26,276.48,581.76Z" transform="translate(-18.54 -90.6)"/><path class="cls-13" d="M255.84,586.08h-2.4Q254.64,583.78,255.84,586.08Z" transform="translate(-18.54 -90.6)"/><path class="cls-14" d="M240.48,597.6c.36,1,1.29,2.19-.48,2.88.4-1,0-1.92,0-2.88Z" transform="translate(-18.54 -90.6)"/><path class="cls-14" d="M273.12,577.92h.48a4.26,4.26,0,0,0,0,2.4C272.1,579.79,272.49,578.88,273.12,577.92Z" transform="translate(-18.54 -90.6)"/><path class="cls-13" d="M240.48,597.6H240c-.49-.07-.95-.19-.87-.83s.48-.55.87-.61h.48Z" transform="translate(-18.54 -90.6)"/><path class="cls-13" d="M206.4,374.88a2.27,2.27,0,0,1,1.92-1.44C208.25,374.68,207.43,374.93,206.4,374.88Z" transform="translate(-18.54 -90.6)"/><path class="cls-14" d="M240,600.48a.9.9,0,0,1-1.08.93c-.58,0-.78-.42-.84-.93Z" transform="translate(-18.54 -90.6)"/><path class="cls-13" d="M243.36,291.36a2.27,2.27,0,0,1-1.92-1.44C242.47,289.87,243.29,290.12,243.36,291.36Z" transform="translate(-18.54 -90.6)"/><path class="cls-13" d="M231.84,586.08c.07-.66-.22-1.42.48-1.92C233,585,233.2,585.74,231.84,586.08Z" transform="translate(-18.54 -90.6)"/><path class="cls-14" d="M238.08,570.24h-1q-.17-1.61,1.44-1.44Z" transform="translate(-18.54 -90.6)"/><path class="cls-14" d="M240.48,596.16H240l.48-1.44a1,1,0,0,1,1,.48l0,.93Z" transform="translate(-18.54 -90.6)"/><path class="cls-13" d="M258.24,595.2c-.7-.5-.41-1.26-.48-1.92C259.12,593.62,258.9,594.35,258.24,595.2Z" transform="translate(-18.54 -90.6)"/><path class="cls-13" d="M248.64,291.84a1.34,1.34,0,0,1,1.44,1.44A1.34,1.34,0,0,1,248.64,291.84Z" transform="translate(-18.54 -90.6)"/><path class="cls-13" d="M264,591.84c0,.53.08,1.09-.48,1.44C262.73,592.48,263,592,264,591.84Z" transform="translate(-18.54 -90.6)"/><path class="cls-13" d="M270.24,569.76h-1c.15-.49-.34-1.62,1-1Z" transform="translate(-18.54 -90.6)"/><path class="cls-14" d="M270.24,569.76v-1c.7,0,1.4,0,1.44,1Z" transform="translate(-18.54 -90.6)"/><path class="cls-13" d="M232.8,581.28c0-.53-.08-1.09.48-1.44C234.07,580.64,233.82,581.09,232.8,581.28Z" transform="translate(-18.54 -90.6)"/><path class="cls-13" d="M266.88,584.64q.93.72,0,1.44Q266,585.36,266.88,584.64Z" transform="translate(-18.54 -90.6)"/><path class="cls-13" d="M240.48,559.2a1.45,1.45,0,0,1-1,1.44C239.51,559.94,239.51,559.24,240.48,559.2Z" transform="translate(-18.54 -90.6)"/><path class="cls-14" d="M289,585.12a1.45,1.45,0,0,1-1-1.44.88.88,0,0,1,1,1Z" transform="translate(-18.54 -90.6)"/><path class="cls-13" d="M257.28,588.48a1,1,0,0,1-.48-1C257.41,587.62,258,587.72,257.28,588.48Z" transform="translate(-18.54 -90.6)"/><path class="cls-14" d="M234.72,577.44a.88.88,0,0,1,1-1A.88.88,0,0,1,234.72,577.44Z" transform="translate(-18.54 -90.6)"/><path class="cls-14" d="M274.08,581.28a1,1,0,0,1,.48,1,.88.88,0,0,1-1-1Z" transform="translate(-18.54 -90.6)"/><path class="cls-13" d="M252.48,588v1c-.35-.07-.83-.06-.71-.58C251.8,588.21,252.23,588.12,252.48,588Z" transform="translate(-18.54 -90.6)"/><path class="cls-13" d="M232.32,583.2a1,1,0,0,1,.48-1C233.53,583,232.93,583.1,232.32,583.2Z" transform="translate(-18.54 -90.6)"/><path class="cls-13" d="M247.68,290.4a.88.88,0,0,1,1,1A.88.88,0,0,1,247.68,290.4Z" transform="translate(-18.54 -90.6)"/><path class="cls-14" d="M235.68,599.52a.88.88,0,0,1-1-1A.88.88,0,0,1,235.68,599.52Z" transform="translate(-18.54 -90.6)"/><path class="cls-13" d="M261.12,598.56q-.48.74-1,0Q260.64,597.83,261.12,598.56Z" transform="translate(-18.54 -90.6)"/><circle class="cls-14" cx="197.46" cy="450.84" r="0.68"/><path class="cls-13" d="M263,596.16a1,1,0,0,1-.48,1C261.83,596.36,262.43,596.26,263,596.16Z" transform="translate(-18.54 -90.6)"/><path class="cls-14" d="M241,565.44a.88.88,0,0,1,1-1A.88.88,0,0,1,241,565.44Z" transform="translate(-18.54 -90.6)"/><path class="cls-14" d="M288,583.2h-1v-1A.88.88,0,0,1,288,583.2Z" transform="translate(-18.54 -90.6)"/><path class="cls-14" d="M230.88,594.72h1v1A.88.88,0,0,1,230.88,594.72Z" transform="translate(-18.54 -90.6)"/><path class="cls-14" d="M212.16,551c.7.5.41,1.26.48,1.92C211.86,552.47,211.22,552,212.16,551Z" transform="translate(-18.54 -90.6)"/><path class="cls-14" d="M213.12,549.12a.88.88,0,0,1-1,1A.88.88,0,0,1,213.12,549.12Z" transform="translate(-18.54 -90.6)"/><path class="cls-14" d="M215.52,556.8q.73.48,0,1Q214.79,557.28,215.52,556.8Z" transform="translate(-18.54 -90.6)"/><path class="cls-14" d="M232.32,573.6a1.45,1.45,0,0,1,1-1.44.88.88,0,0,1,.18,1.41C233.11,574,232.71,574.12,232.32,573.6Z" transform="translate(-18.54 -90.6)"/><path class="cls-14" d="M231.84,576v-1.44C232.59,575,233.35,575.52,231.84,576Z" transform="translate(-18.54 -90.6)"/><g id="Highlands-2" data-name="Highlands"><text class="cls-12" transform="translate(264.71 366.91)">Highlands</text></g></g><g id="speyside"><path class="cls-15" d="M324,375.28v-7.2c1.68-2.05.91-4.81,2.26-7.11,1.55-2.64,2.61-5.56,5.2-7.42,3.9-2.8,7.86-5.5,11.79-8.26a14.52,14.52,0,0,0,5.63-8.55c.73-2.88,1.9-3.64,4.62-2.11a5.59,5.59,0,0,0,2.43.83,25.14,25.14,0,0,0,16.67-4.72c3.19-2.19,6.26-4.56,10-5.86.67-.24,1.33-.73,2-.22.53.39.37,1,.17,1.54a2,2,0,0,0,1,2.63c.58.34,1.2.92,1.94.25s.55-1.68.29-2.64c-.5-1.8.09-2.76,2.13-2.54a6.32,6.32,0,0,0,4.4-.78c3.94-2.74,7.88-5.48,12.06-7.84h6.24a9.55,9.55,0,0,0,6.09,2.86c.72.08,1.46.05,2,.66a8.83,8.83,0,0,0,6.3,3,23.28,23.28,0,0,1,5.15.94c4.11,1.38,7.71.54,11.42-1.53,3.28-1.83,6.61-3.58,10.71-3.7,2.16-.06,4.38.12,6.56,0,2-.1,4.43-.51,6.31.64,5.06,3.12,10.66,3.39,16.22,2.8,3.57-.37,7.2,0,10.79-1.5a6.63,6.63,0,0,1,7.76,2.1v3.36a12.56,12.56,0,0,1-2.24,3.53c-3.45,3.73-5.86,7.89-5,13.32.26,1.63-.08,3.36.06,5,.28,3.23-.75,6.16-2,9a47.58,47.58,0,0,1-5.11,9.13,11.4,11.4,0,0,0-2.52,8.21c.24,2.53,0,5.1.06,7.65a4.35,4.35,0,0,1-1,3.06,154.62,154.62,0,0,1-13.21,14,8,8,0,0,1-5.29,2.53,2.17,2.17,0,0,0-1.63.89h-2.4c-.12-.1-.24-.29-.36-.29-6-.22-11.67-2.1-17.25-3.81-6.26-1.91-11.64-.84-17.19,1.78-4.14,1.95-8.47,1.65-12.86.81-5-1-10-2.32-15.21-2.42-6.79-.14-13.6,1-20.39-1.19a93.91,93.91,0,0,1-17.82-8.15,14.12,14.12,0,0,1-4.78-5.42c-1.61-2.78-3.64-5.73-7.95-5.41-3.08.22-6.21.93-9.28.52C333.81,377,328.63,377.93,324,375.28Z" transform="translate(-18.54 -90.6)"/><g id="Speyside-2" data-name="Speyside"><text class="cls-16" transform="translate(333.84 278.05)">Speyside</text></g></g></svg>